<svg width="609" height="575" viewBox="0 0 609 575" fill="none" xmlns="http://www.w3.org/2000/svg">
<path d="M104.991 322.792C105.296 323.546 105.602 324.299 105.914 325.045C134.506 394.333 188.885 458.68 272.834 464.628C331.183 468.744 374.063 443.286 414.65 407.453C444.358 381.213 483.904 381.59 521.986 380.59C548.544 379.896 576.513 374.236 589.269 350.089C607.433 315.655 591.11 270.825 566.726 242.784C545.407 218.308 510.645 197.993 476.288 198.812C436.648 199.755 402.556 221.475 364.283 228.315C322.57 235.779 279.787 222.947 244.805 201.596C217.071 184.685 181.843 158.74 146.521 164.816C111.563 170.826 92.8144 209.338 89.6721 239.655C86.7379 267.927 94.2512 296.259 104.991 322.792Z" fill="#C5E4F9"/>
<mask id="mask0_916_1293" style="mask-type:luminance" maskUnits="userSpaceOnUse" x="89" y="163" width="509" height="303">
<path fill-rule="evenodd" clip-rule="evenodd" d="M104.991 322.792C105.296 323.546 105.602 324.299 105.914 325.045C134.506 394.333 188.885 458.68 272.834 464.628C331.183 468.744 374.063 443.286 414.65 407.453C444.358 381.213 483.904 381.59 521.986 380.59C548.544 379.896 576.513 374.236 589.269 350.089C607.433 315.655 591.11 270.825 566.726 242.784C545.407 218.308 510.645 197.993 476.288 198.812C436.648 199.755 402.556 221.475 364.283 228.315C322.57 235.779 279.787 222.947 244.805 201.596C217.071 184.685 181.843 158.74 146.521 164.816C111.563 170.826 92.8144 209.338 89.6721 239.655C86.7379 267.927 94.2512 296.259 104.991 322.792Z" fill="white"/>
</mask>
<g mask="url(#mask0_916_1293)">
<path d="M103.764 324.677C103.764 324.677 171.912 492.082 309.654 465.974C447.395 439.866 378.47 376.905 529.312 382.702C680.155 388.499 569.541 134.187 417.959 211.26C266.376 288.333 216.638 130.296 135.833 168.819C55.0275 207.342 103.764 324.677 103.764 324.677Z" fill="#BDBBB9"/>
</g>
<path d="M580.237 434.639C574.661 408.325 540.107 440.781 545.214 425.669C550.321 410.556 529.044 406.988 522.234 416.09C514.807 426.062 499.836 429.091 507.826 417.992C515.815 406.893 502.442 390.477 486.07 394.835C469.699 399.193 476.54 391.681 477.116 390.402C495.011 362.679 457.564 350.652 444.137 369.914C433.761 384.801 421.062 374.802 422.31 355.263C423.557 335.725 393.568 336.489 370.774 369.704C347.979 402.918 333.485 374.487 333.485 374.487C333.485 374.487 331.238 367.921 327.614 369.588C323.989 371.254 271.017 433.782 271.017 433.782L580.237 434.613" fill="white"/>
<path d="M580.236 434.639C574.661 408.325 540.107 440.781 545.214 425.669C550.321 410.556 529.044 406.988 522.234 416.09C514.806 426.062 499.836 429.091 507.826 417.992C515.815 406.893 502.442 390.477 486.07 394.835C469.699 399.193 476.539 391.681 477.116 390.402C495.011 362.679 457.564 350.653 444.137 369.914C433.761 384.801 421.062 374.802 422.309 355.263C423.23 340.476 406.284 337.316 388.078 351.053L382.968 372.489C382.968 372.489 393.105 344.936 407.692 349.384C422.278 353.831 408.966 395.42 431.528 396.734C454.09 398.049 445.996 369.919 467.998 371.615C485.157 372.941 452.895 410.743 489.695 411.212C515.348 411.538 488.588 440.96 511.625 429.182C534.663 417.404 540.308 417.875 537.758 425.292C535.208 432.71 545.273 434.664 559.727 428.948C569.99 424.884 572.449 430.302 570.502 434.62L580.236 434.639Z" fill="#D8D8D8"/>
<path d="M422.338 355.277C423.557 335.738 393.568 336.489 370.773 369.73C347.979 402.971 333.485 374.514 333.485 374.514C333.485 374.514 331.238 367.948 327.614 369.614C323.989 371.281 271.017 433.809 271.017 433.809" stroke="#191919" stroke-width="1.11" stroke-linecap="round"/>
<path d="M422.447 361.467C422.345 360.418 422.285 359.329 422.274 358.207" stroke="#191919" stroke-width="1.11" stroke-linecap="round"/>
<path d="M515.627 422.23C508.69 426.686 501.87 426.265 507.853 417.992C515.878 406.9 502.469 390.477 486.098 394.835C469.726 399.193 476.567 391.681 477.144 390.402C495.039 362.679 457.592 350.653 444.165 369.914C436.574 380.81 427.747 378.377 424.035 368.626" stroke="#191919" stroke-width="1.11" stroke-linecap="round"/>
<path d="M521.322 417.269C520.902 417.763 520.467 418.237 520.012 418.691" stroke="#191919" stroke-width="1.11" stroke-linecap="round"/>
<path d="M580.237 434.639C574.661 408.325 540.108 440.781 545.215 425.669C550.322 410.556 529.045 406.988 522.235 416.09" stroke="#191919" stroke-width="1.11" stroke-linecap="round"/>
<path d="M346.898 433.445C346.899 433.109 346.9 432.785 346.901 432.455C346.816 412.148 320.278 421.046 319.664 407.772C319.036 394.281 337.25 365.027 337.25 365.027C337.25 365.027 320.435 380.92 313.789 401.618C307.143 422.317 329.454 415.757 329.566 423.605C329.677 431.452 310.844 433.916 310.844 433.916L346.898 433.445Z" fill="#D8D8D8"/>
<path d="M339.131 351.298C339.131 351.298 307.068 387.86 291.009 382.484C274.95 377.109 289.571 355.851 269.974 343.49C250.377 331.129 233.711 380.192 218.799 363.97C203.887 347.747 162.572 347.702 132.709 377.195C102.845 406.688 116.018 432.825 116.018 432.825L281.026 428.2L334.491 361.588L339.131 351.298Z" fill="#D8D8D8"/>
<path d="M291.008 382.484C274.984 377.109 289.57 355.851 269.973 343.49C261.015 337.849 252.673 345.027 244.825 352.939C256.385 352.383 266.083 353.095 268.477 356.632C275.264 366.669 275.475 402.717 297.593 389.709C319.711 376.701 327.605 364.968 327.605 364.968L325.032 365.403C314.418 375.057 300.134 385.538 291.008 382.484Z" fill="white"/>
<path d="M319.731 379.968L334.49 361.581L339.13 351.298C339.13 351.298 307.067 387.86 291.009 382.484C287.364 381.401 284.534 378.669 283.467 375.205" stroke="#191919" stroke-width="1.11" stroke-linecap="round"/>
<path d="M281.372 361.775C280.39 355.338 278.158 348.653 269.995 343.516C250.405 331.175 233.732 380.192 218.799 363.97C203.867 347.747 162.572 347.702 132.709 377.195C102.845 406.688 116.018 432.825 116.018 432.825L281.026 428.2L315.314 385.48" stroke="#191919" stroke-width="1.11" stroke-linecap="round"/>
<path d="M465.803 434.18C468.762 420.183 448.531 412.269 434.23 420.896C419.93 429.523 424.767 392.822 397.02 409.53C369.273 426.239 376.134 379.921 376.134 379.921C372.955 379.813 358.422 375.914 358.397 385.569C358.371 395.224 363.633 423.92 384.604 418.829C405.576 413.737 414.558 412.97 412.185 422.553C409.811 432.135 420.838 435.01 434.358 428.169C447.878 421.328 463.76 422.038 457.759 434.409" fill="#D8D8D8"/>
<path d="M282.466 370.819C282.328 369.928 282.219 369.004 282.117 368.066" stroke="#191919" stroke-width="1.11" stroke-linecap="round"/>
<path d="M37.4559 335.81C37.4559 335.81 8.16541 326.208 22.2713 293.73C36.3772 261.251 52.9053 294.868 63.3647 267.078C73.8241 239.289 93.0521 225.164 97.1985 237.319C101.345 249.473 122.271 217.336 207.993 182.278C207.931 185.237 207.558 188.183 206.88 191.072C206.88 191.072 79.6817 241.37 81.479 305.966C83.2763 370.562 37.4559 335.81 37.4559 335.81Z" fill="white"/>
<path d="M97.1979 237.299C95.4645 232.206 91.0771 231.739 85.7992 234.945C87.547 237.28 92.9473 240.515 89.2116 244.57C80.7449 253.787 92.7353 246.606 107.472 236.977C101.431 240.571 98.5085 241.097 97.1979 237.299Z" fill="#D8D8D8"/>
<path d="M22.2707 293.71C15.2387 309.952 19.0192 320.476 24.5786 326.932C31.0414 319.644 37.3363 307.253 37.3363 307.253C37.3363 307.253 21.8139 305.106 31.3131 280.911C28.2254 283.1 25.196 286.986 22.2707 293.71Z" fill="#D8D8D8"/>
<path d="M63.4885 319.507C58.8362 308.374 38.5986 297.661 19.7648 318.538C22.2606 325.989 27.797 330.597 32.0181 333.156C41.3583 329.162 50.0065 325.212 49.9919 328.05C49.9724 335.31 64.7243 340.754 76.6884 332.939C77.2298 332.59 77.7957 332.277 78.3821 332C79.8399 327.835 80.7596 323.519 81.1211 319.145C71.7979 324.637 67.1131 328.188 63.4885 319.507Z" fill="#D8D8D8"/>
<path fill-rule="evenodd" clip-rule="evenodd" d="M37.4559 335.81C37.4559 335.81 8.16541 326.208 22.2713 293.73C36.3772 261.251 52.9053 294.868 63.3647 267.078C73.8241 239.289 93.0521 225.164 97.1985 237.319C101.345 249.473 122.271 217.336 207.993 182.278C207.931 185.237 207.558 188.183 206.88 191.072C206.88 191.072 79.6817 241.37 81.479 305.966C83.2763 370.562 37.4559 335.81 37.4559 335.81Z" stroke="#191919" stroke-width="1.11"/>
<path d="M289.661 431.609C289.661 431.609 246.043 424.892 245.355 418.416C244.666 411.94 232.437 414.52 229.593 422.234C226.749 429.948 221.386 417.817 218.662 422.621C215.937 427.424 219.227 430.911 224.755 430.682C230.283 430.453 288 435.874 289.661 431.609Z" fill="white" stroke="#191919" stroke-width="1.11"/>
<path d="M158.377 369.45C158.377 369.45 132.56 411.718 144.76 412.245C156.961 412.773 191.276 398.98 180.883 420.262C175.5 431.282 259.446 425.568 293.737 433.646C287.279 433.853 130.685 433.208 130.685 433.208L105.044 410.251C105.044 410.251 155.578 350.073 158.377 369.45Z" fill="white"/>
<path d="M180.882 420.262C191.275 398.98 156.966 412.767 144.759 412.245C134.229 411.795 152.036 380.224 157.091 371.605L155.499 371.158C155.499 371.158 121.71 415.318 142.349 417.063C162.988 418.808 178.584 409.102 174.08 421.042C169.73 432.547 283.765 433.263 292.151 433.298C257.005 425.733 175.569 431.117 180.882 420.262Z" fill="#D8D8D8"/>
<path d="M206.88 191.073C206.88 191.073 103.355 258.389 97.0741 283.668C90.7936 308.948 135.271 284.114 131.665 315.44C128.059 346.765 198.482 291.794 198.313 323.314C198.145 354.833 80.2838 417.966 47.5728 365.318C14.8618 312.671 79.0902 250.899 202.176 188.559C325.262 126.219 206.88 191.073 206.88 191.073Z" fill="white"/>
<path d="M141.787 337.648C147.919 333.153 153.779 328.337 159.339 323.222" stroke="#D8D8D8"/>
<path d="M134.297 342.313C135.347 341.782 136.488 341.138 137.727 340.343" stroke="#D8D8D8"/>
<path d="M205.088 192.269C205.357 191.009 205.17 190.164 204.396 189.845C204.396 189.845 106.311 242.788 91.9144 279.529C77.5175 316.271 118.826 297.982 124.336 307.269C129.032 315.201 114.841 348.109 130.17 343.979" stroke="#D8D8D8"/>
<path d="M110.196 242.95C135.185 225.02 166.2 206.803 202.176 188.585C325.241 126.225 206.879 191.073 206.879 191.073C206.879 191.073 103.354 258.388 97.0738 283.668C90.7933 308.948 135.271 284.114 131.665 315.439C128.059 346.765 198.481 291.794 198.313 323.313C198.144 354.833 80.2835 417.966 47.5725 365.318C40.1201 353.326 37.6936 340.873 39.8526 328.029" stroke="#191919"/>
<path d="M104.587 247.02C105.666 246.218 106.751 245.422 107.85 244.62" stroke="#191919"/>
<path d="M99.6299 250.769L101.983 248.974" stroke="#191919"/>
<path d="M55.0373 294.497C56.0403 293.107 57.0783 291.718 58.1653 290.321C66.7416 279.323 78.0928 268.141 91.9742 256.826" stroke="#191919"/>
<path d="M50.5824 301.164C51.2844 300.004 52.0422 298.845 52.8281 297.679" stroke="#191919"/>
<path d="M153.682 331.998C153.682 331.998 122.991 359.931 118.659 349.307C114.327 338.683 115.453 304.354 95.6976 311.904C75.9422 319.454 68.6479 331.862 63.4887 319.506C61.1903 314.003 55.083 308.601 47.2182 307.062C43.1512 314.806 40.5659 322.434 39.5674 329.942C45.5351 327.477 49.9976 326.01 49.9852 328.05C49.9657 335.309 64.7175 340.754 76.6817 332.939C88.6458 325.124 105.491 337.029 94.7896 355.961C84.0885 374.893 129.51 370.89 159.606 335.637C163.76 323.94 153.682 331.998 153.682 331.998Z" fill="#D8D8D8"/>
<path d="M256.249 429.453C270.608 430.224 284.127 431.402 293.737 433.665C287.279 433.872 130.685 433.227 130.685 433.227L105.044 410.251C105.044 410.251 155.578 350.072 158.377 369.476C158.377 369.476 132.56 411.744 144.76 412.272C156.961 412.799 191.276 399.006 180.883 420.288C178.072 426.016 199.404 427.221 225.336 428.195" stroke="#191919" stroke-width="1.11" stroke-linecap="round"/>
<path d="M387.079 434.121C390.137 421.992 372.311 419.093 368.659 425.795C365.007 432.497 352.032 428.971 356.149 420.706C360.267 412.441 352.77 409.108 342.263 405.127C331.757 401.145 342.903 385.547 342.903 385.547C340.636 389.283 332.196 378.048 329.027 384.54C325.858 391.032 323.465 407.564 336.703 409.388C349.941 411.212 352.659 414.051 350.508 418.698C348.357 423.345 354.356 435.174 367.419 429.58C380.481 423.986 382.858 434.109 382.858 434.109L387.079 434.121Z" fill="#D8D8D8"/>
<path d="M250.12 429.126L253.209 429.273" stroke="#191919" stroke-width="1.11" stroke-linecap="round"/>
<path d="M326.121 368.356C326.121 368.356 304.552 400.822 275.664 397.332C246.777 393.842 290.483 364.901 242.618 349.877C194.753 334.853 152.376 384.25 149.987 399.483C147.598 414.715 184.25 391.985 186.003 402.582C187.757 413.179 189.423 430.488 209.346 412.419" stroke="#D8D8D8" stroke-width="1.11"/>
<path d="M43.6262 416.798C43.6262 416.798 4.29344 414.977 7.10289 383.702C9.91234 352.427 39.5289 381.149 25.7389 350.608C11.949 320.068 50.1545 304.437 60.2309 322.982C70.3073 341.528 92.9989 302.347 102.685 323.096C112.371 343.845 91.2269 381.915 144.68 345.899C198.133 309.883 210.582 295.786 210.582 295.786C210.582 295.786 164.154 346.934 150.875 360.138C137.597 373.341 88.7987 416.946 88.7987 416.946L43.6262 416.798Z" fill="white"/>
<path d="M161.33 349.25C163.118 339.355 156.406 343.072 156.406 343.072C156.406 343.072 114.153 377.185 105.135 375.801C96.1166 374.417 102.194 359.796 84.8514 363.979C67.509 368.163 72.3675 372.776 61.4809 364.471C50.5943 356.166 29.5492 362.544 33.2145 376.895C36.6719 390.579 7.3083 395.199 8.4835 376.551C7.74917 378.871 7.28579 381.26 7.10164 383.675C4.52984 412.331 37.2388 416.279 42.8283 416.743C48.5482 411.848 53.7151 406.405 58.2464 400.503L87.0787 395.961C87.0787 395.961 130.758 374.425 151.077 359.834C153.586 357.406 157.153 353.68 161.33 349.25Z" fill="#D8D8D8"/>
<path d="M105.605 336.462C106.951 355.822 101.616 374.888 144.68 345.872C198.133 309.85 210.582 295.76 210.582 295.76C210.582 295.76 164.154 346.908 150.875 360.111C137.597 373.315 88.7987 416.92 88.7987 416.92L43.6261 416.798C43.6261 416.798 4.29337 414.977 7.10282 383.702C9.91227 352.427 39.5288 381.149 25.7389 350.608C20.9315 339.963 22.4367 331.131 26.8701 324.926" stroke="#191919"/>
<path d="M155.499 371.159C155.499 371.159 133.074 394.296 131.454 412.21C129.833 430.124 166.906 409.626 168.421 425.812C168.986 431.423 186.748 429.689 186.748 429.689" stroke="#D8D8D8"/>
<path d="M104.749 329.629C104.969 330.745 105.141 331.874 105.285 333.016" stroke="#191919"/>
<path d="M376.121 379.941C376.121 379.941 369.273 426.259 397.006 409.551C424.739 392.842 419.916 429.57 434.217 420.916C448.517 412.263 468.588 420.065 465.629 434.055" stroke="#191919"/>
<path d="M37.5072 316.672C45.9862 313.296 55.8146 314.86 60.2304 322.989C70.3068 341.542 92.9984 302.354 102.685 323.103" stroke="#191919"/>
<path d="M465.563 396.291C463.768 385.634 457.925 378.055 443.812 405.294C443.031 407.239 434.024 425.225 419.665 406.16C405.306 387.094 418.999 341.917 387.277 360.674" stroke="#D8D8D8"/>
<path d="M466.143 401.638C466.089 400.655 466.008 399.658 465.892 398.654" stroke="#D8D8D8"/>
<path d="M32.3922 319.423C33.198 318.849 34.0421 318.324 34.9193 317.852" stroke="#191919"/>
<path d="M315.474 421.077C322.196 409.077 315.376 393.218 300.241 385.654C285.107 378.09 267.389 381.686 260.667 393.685C253.945 405.685 260.765 421.545 275.899 429.109C291.034 436.673 308.752 433.077 315.474 421.077Z" fill="#191919" stroke="#191919"/>
<path d="M298.795 412.741C301.424 408.047 298.754 401.843 292.831 398.883C286.908 395.923 279.976 397.328 277.347 402.021C274.717 406.715 277.387 412.92 283.31 415.88C289.233 418.84 296.166 417.435 298.795 412.741Z" fill="white" stroke="#191919"/>
<path d="M291.964 409.222C290.404 412.033 286.883 413.32 283.724 412.236L258.54 403.523L268.462 385.803L290.085 401.166C292.723 403.051 293.519 406.466 291.964 409.222Z" fill="white"/>
<path d="M292.722 405.647C292.391 406.557 291.156 411.061 282.236 406.86C271.278 401.689 265.766 401.239 258.287 406.795C257.377 407.453 263.423 404.387 263.561 405.272L283.703 412.236C286.862 413.32 290.383 412.033 291.944 409.222C292.568 408.128 292.838 406.885 292.722 405.647Z" fill="white"/>
<path fill-rule="evenodd" clip-rule="evenodd" d="M291.964 409.222C290.404 412.033 286.883 413.32 283.724 412.236L258.54 403.523L268.462 385.803L290.085 401.166C292.723 403.051 293.519 406.466 291.964 409.222V409.222Z" stroke="#191919" stroke-width="1.11"/>
<path d="M289.481 408.12C290.105 407.005 289.472 405.532 288.066 404.829C286.66 404.127 285.015 404.461 284.39 405.576C283.766 406.69 284.399 408.163 285.805 408.866C287.211 409.568 288.856 409.234 289.481 408.12Z" fill="#191919" stroke="#191919" stroke-width="1.11"/>
<path d="M256.391 391.697C251.777 399.94 251.032 409.284 253.524 418.286C260.398 419.22 267.152 415.976 270.402 410.18L281.117 391.07C284.186 385.593 283.518 378.917 279.416 374.078C269.526 377.054 261.236 383.057 256.391 391.697Z" fill="#BDBBB9"/>
<path d="M258.084 412.259C253.573 410.835 257.643 394.254 257.643 394.254C257.009 393.421 256.346 393.063 255.675 393.101C251.726 401.01 251.193 409.792 253.546 418.286C260.421 419.22 267.175 415.977 270.424 410.181L274.082 403.65C269.587 401.638 262.154 413.551 258.084 412.259Z" fill="white"/>
<path d="M277.741 397.08L281.119 391.057C284.188 385.58 283.52 378.903 279.418 374.065C269.528 377.054 261.224 383.057 256.392 391.697C251.779 399.94 251.034 409.284 253.526 418.286C260.4 419.22 267.154 415.976 270.403 410.18L273.985 403.788" stroke="#191919" stroke-width="1.11" stroke-linecap="round"/>
<path d="M255.505 394.249C260.395 394.262 264.369 390.529 264.381 385.911C264.394 381.293 260.44 377.538 255.55 377.525C250.659 377.512 246.685 381.245 246.673 385.863C246.66 390.481 250.615 394.236 255.505 394.249Z" fill="#191919" stroke="#191919" stroke-width="1.11"/>
<path d="M430.015 407.99C434.525 398.955 428.944 387.515 417.548 382.44C406.153 377.364 393.259 380.575 388.749 389.611C384.238 398.647 389.82 410.086 401.215 415.161C412.61 420.237 425.505 417.026 430.015 407.99Z" fill="#191919" stroke="#191919" stroke-width="1.11"/>
<path d="M417.454 402.396C419.218 398.862 417.034 394.388 412.576 392.402C408.117 390.416 403.073 391.671 401.309 395.205C399.545 398.739 401.729 403.214 406.188 405.199C410.646 407.185 415.69 405.93 417.454 402.396Z" fill="white" stroke="#191919" stroke-width="1.11"/>
<path d="M412.302 399.995C411.256 402.111 408.717 403.172 406.355 402.481L387.501 396.886L394.162 383.54L410.605 394.143C412.617 395.435 413.336 397.916 412.302 399.995Z" fill="white"/>
<path d="M412.727 397.35C412.515 398.009 411.772 401.373 405.078 398.57C396.841 395.123 392.774 394.967 387.472 399.295C386.828 399.821 391.16 397.358 391.298 397.985L406.353 402.461C408.715 403.152 411.254 402.091 412.3 399.976C412.711 399.159 412.86 398.246 412.727 397.35Z" fill="white"/>
<path fill-rule="evenodd" clip-rule="evenodd" d="M412.302 399.995C411.256 402.111 408.717 403.172 406.355 402.481L387.501 396.886L394.162 383.54L410.605 394.143C412.617 395.435 413.336 397.916 412.302 399.995V399.995Z" stroke="#191919" stroke-width="1.11"/>
<path d="M410.448 399.293C410.868 398.452 410.35 397.388 409.292 396.917C408.234 396.446 407.037 396.746 406.617 397.586C406.198 398.427 406.715 399.49 407.773 399.961C408.831 400.433 410.028 400.133 410.448 399.293Z" fill="#191919" stroke="#191919" stroke-width="1.11"/>
<path d="M385.526 388.262C382.427 394.464 382.22 401.36 384.376 407.893C389.463 408.357 394.31 405.756 396.49 401.392L403.678 386.998C405.734 382.872 405.004 377.987 401.817 374.559C394.655 377.074 388.779 381.75 385.526 388.262Z" fill="#BDBBB9"/>
<path d="M387.49 403.314C384.131 402.414 386.519 390.112 386.519 390.112C386.209 389.618 385.641 389.319 385.032 389.33C382.497 395.253 382.264 401.834 384.375 407.906C389.461 408.37 394.308 405.769 396.489 401.405L398.941 396.495C395.576 395.146 390.548 404.134 387.49 403.314Z" fill="white"/>
<path d="M401.402 391.565L403.664 387.031C405.721 382.905 404.99 378.02 401.804 374.592C394.641 377.107 388.765 381.784 385.512 388.295C382.413 394.497 382.206 401.393 384.362 407.926C389.449 408.39 394.296 405.789 396.476 401.425L398.879 396.614" stroke="#191919" stroke-width="1.11" stroke-linecap="round"/>
<path d="M384.668 390.167C388.265 390.177 391.188 387.431 391.197 384.034C391.206 380.637 388.298 377.875 384.701 377.866C381.104 377.856 378.18 380.602 378.171 383.999C378.162 387.396 381.07 390.158 384.668 390.167Z" fill="#191919" stroke="#191919" stroke-width="1.11"/>
<path d="M346.829 430.634C346.913 431.569 346.936 432.508 346.898 433.446" stroke="#191919" stroke-width="1.11" stroke-linecap="round"/>
<path d="M320.436 401.247C319.89 403.387 319.635 405.584 319.678 407.785C320.233 419.831 342.13 413.62 346.251 427.53" stroke="#191919" stroke-width="1.11" stroke-linecap="round"/>
<path d="M322.516 394.409C322.248 395.154 321.988 395.886 321.748 396.618" stroke="#191919" stroke-width="1.11" stroke-linecap="round"/>
<path d="M337.278 365.027C337.278 365.027 328.975 378.356 323.77 391.165" stroke="#191919" stroke-width="1.11" stroke-linecap="round"/>
<path d="M474.511 166.187C476.551 163.622 475.582 159.683 472.348 157.389C469.113 155.094 464.838 155.312 462.798 157.877C460.759 160.441 461.727 164.38 464.962 166.675C468.196 168.969 472.471 168.751 474.511 166.187Z" fill="#191919" stroke="#191919" stroke-width="1.11"/>
<path d="M470.946 163.657C471.743 162.655 471.364 161.115 470.098 160.217C468.833 159.319 467.161 159.404 466.364 160.406C465.566 161.409 465.946 162.949 467.211 163.847C468.476 164.744 470.148 164.66 470.946 163.657Z" fill="white" stroke="#191919" stroke-width="1.11"/>
<path d="M469.467 162.574C468.989 163.175 468.116 163.353 467.418 162.991L461.884 160.079L464.9 156.292L469.346 160.634C469.88 161.167 469.931 161.986 469.467 162.574Z" fill="#BDBBB9"/>
<path d="M469.806 161.764C469.693 161.968 469.222 162.976 467.311 161.684C464.96 160.094 463.689 159.794 461.723 160.831C461.485 160.956 463.017 160.445 463.016 160.656L467.44 162.991C468.138 163.353 469.011 163.175 469.489 162.575C469.674 162.338 469.784 162.057 469.806 161.764Z" fill="#BDBBB9"/>
<path fill-rule="evenodd" clip-rule="evenodd" d="M469.467 162.574C468.989 163.175 468.116 163.353 467.418 162.991L461.884 160.079L464.9 156.292L469.346 160.634C469.88 161.167 469.931 161.986 469.467 162.574V162.574Z" stroke="#191919" stroke-width="1.11"/>
<path d="M468.952 162.251C469.142 162.012 469.053 161.646 468.754 161.433C468.454 161.221 468.058 161.242 467.868 161.481C467.678 161.72 467.766 162.086 468.065 162.299C468.365 162.511 468.762 162.49 468.952 162.251Z" fill="#191919" stroke="#191919" stroke-width="1.11"/>
<path d="M461.85 157.241C460.474 159.006 459.861 161.198 460.135 163.374C461.705 163.827 463.407 163.304 464.394 162.066L467.648 157.976C468.573 156.803 468.679 155.225 467.917 153.951C465.513 154.247 463.332 155.43 461.85 157.241Z" fill="#BDBBB9"/>
<path d="M461.418 162.097C460.419 161.606 462.023 157.875 462.023 157.875C461.952 157.703 461.795 157.576 461.604 157.537C460.399 159.248 459.873 161.306 460.121 163.348C461.691 163.8 463.393 163.277 464.381 162.039L465.489 160.643C464.54 160.02 462.339 162.542 461.418 162.097Z" fill="white"/>
<path d="M466.617 159.24L467.648 157.956C468.573 156.783 468.679 155.205 467.917 153.931C465.555 154.2 463.404 155.348 461.943 157.121C460.481 158.894 459.83 161.145 460.135 163.374C461.705 163.827 463.407 163.304 464.394 162.066L465.481 160.696" stroke="#191919" stroke-width="1.11" stroke-linecap="round"/>
<path d="M461.87 157.822C463.024 157.825 463.962 156.944 463.965 155.854C463.968 154.764 463.035 153.878 461.881 153.875C460.727 153.872 459.789 154.753 459.786 155.843C459.783 156.933 460.716 157.819 461.87 157.822Z" fill="#191919" stroke="#191919" stroke-width="1.11"/>
<path d="M274.158 300.003L268.576 296.978L235.76 350.862L246.081 356.48L212.188 410.77L219.781 412.176C231.105 414.288 242.592 409.346 248.333 399.892L266.885 369.425C268.118 367.403 268.449 365.001 267.806 362.748C267.164 360.495 265.6 358.575 263.458 357.411C262.22 356.734 261.796 355.239 262.51 354.069L280.95 323.826C286.036 315.478 282.996 304.814 274.158 300.003Z" fill="#BDBBB9"/>
<path d="M452.626 157.513C452.626 157.513 388.176 239.097 384.828 244.447C381.481 249.797 385.807 265.067 370.209 267.691C354.611 270.315 364.212 286.26 351.863 286.543C339.514 286.827 328.308 293.469 326.466 297.576C324.624 301.682 316.129 300.531 351.255 265.726C386.381 230.922 459.433 141.593 452.626 157.513Z" fill="white"/>
<path d="M359.282 269.22C356.349 273.317 354.414 286.036 339.385 282.517C338.075 282.203 336.71 282.159 335.381 282.388C332.256 285.833 329.373 289.468 326.749 293.267C326.805 294.226 327.064 295.165 327.51 296.028C331.015 291.992 340.974 286.825 351.862 286.557C364.211 286.273 354.617 270.329 370.208 267.705C385.8 265.08 381.473 249.823 384.828 244.46C387.937 239.473 443.853 168.61 451.699 158.686C459.546 148.761 380.452 236.872 378.527 253.927C376.601 270.982 362.214 265.129 359.282 269.22Z" fill="#D8D8D8"/>
<path fill-rule="evenodd" clip-rule="evenodd" d="M452.626 157.513C452.626 157.513 388.176 239.097 384.828 244.447C381.481 249.797 385.807 265.067 370.209 267.691C354.611 270.315 364.212 286.26 351.863 286.543C339.514 286.827 328.308 293.469 326.466 297.576C324.624 301.682 316.129 300.531 351.255 265.726C386.381 230.922 459.433 141.593 452.626 157.513Z" stroke="#191919" stroke-width="1.11"/>
<path d="M447.643 157.018C447.643 157.018 353.334 266.59 347.968 250.631C342.602 234.671 322.91 249.705 332.338 262.725C341.765 275.746 315.891 261.15 311.079 273.261C306.266 285.372 322.988 285.786 318.374 291.832C313.759 297.878 317.411 306.725 326.991 299.504C336.57 292.284 449.184 158.6 449.184 158.6L447.643 157.018Z" fill="white"/>
<path d="M343.931 255.259C340.977 267.309 359.325 247.777 359.325 247.777C353.164 252.176 348.939 253.689 347.92 250.637C345.458 243.371 340.052 242.531 335.768 244.995C338.673 246.012 345.881 247.325 343.931 255.259Z" fill="#D8D8D8"/>
<path d="M448.348 157.746L444.021 163.423C444.021 163.423 398.565 214.396 360.087 258.458C321.61 302.519 324.764 288.675 328.316 282.474C331.869 276.273 313.706 281.643 314.229 274.154C314.418 271.402 316.107 269.539 318.172 268.258C315.04 268.738 312.332 270.077 311.073 273.248C306.267 285.352 322.982 285.773 318.368 291.819C313.753 297.865 317.405 306.712 326.985 299.491C336.564 292.27 449.178 158.586 449.178 158.586L448.348 157.746Z" fill="#D8D8D8"/>
<path d="M411.931 202.546C432.745 178.058 449.15 158.58 449.15 158.58L447.645 157.018C447.645 157.018 402.989 208.897 373.356 236.061C371.744 237.544 370.18 238.945 368.662 240.266C357.573 249.931 349.397 255.01 347.914 250.631C342.506 234.671 322.856 249.705 332.283 262.725C341.71 275.746 315.837 261.15 311.024 273.261C306.211 285.372 322.934 285.786 318.319 291.832C313.704 297.878 317.357 306.725 326.936 299.504C328.974 297.972 335.688 290.691 344.997 280.189" stroke="#191919" stroke-width="1.11" stroke-linecap="round"/>
<path d="M373.787 247.156C384.029 235.258 394.818 222.642 404.927 210.764" stroke="#191919" stroke-width="1.11" stroke-linecap="round"/>
<path d="M366.72 255.334C367.996 253.868 369.279 252.384 370.569 250.883" stroke="#191919" stroke-width="1.11" stroke-linecap="round"/>
<path d="M359.633 263.512L363.216 259.39" stroke="#191919" stroke-width="1.11" stroke-linecap="round"/>
<path d="M165.518 338.55C165.518 338.55 100.401 398.195 98.6221 383.908C99.4467 368.296 81.1537 364.755 78.7796 377.037C76.4055 389.32 60.5241 359.499 42.9528 370.856C25.3814 382.213 54.5861 389.934 39.7615 398.566C24.937 407.198 12.0372 432.929 53.7081 433.226C95.3791 433.522 154.34 433.496 154.34 433.496C154.34 433.496 150.212 422.391 139.952 422.726C129.692 423.062 107.261 414.673 162.964 360.388C179.862 344.865 165.518 338.55 165.518 338.55V338.55Z" fill="white"/>
<path d="M116.874 405.399C111.353 428.78 92.1651 396.753 78.8991 405.344C65.633 413.934 32.1572 435.293 30.9355 406.185C21.9189 417.182 21.0798 432.993 53.7079 433.225C95.3719 433.522 154.34 433.496 154.34 433.496C154.34 433.496 150.212 422.391 139.952 422.726C130.069 423.056 108.895 415.264 157.183 366.154L157.524 356.361C157.524 356.361 122.388 382.012 116.874 405.399Z" fill="#D8D8D8"/>
<path d="M120.947 429.09C121.817 430.692 122.919 432.172 124.22 433.487" stroke="white"/>
<path d="M362.926 429.284C365.356 429.16 367.536 427.834 368.659 425.795C372.311 419.093 390.138 421.992 387.079 434.121" stroke="#191919"/>
<path d="M355.352 423.918C355.375 424.793 355.64 425.647 356.121 426.395" stroke="#191919"/>
<path d="M342.904 385.547C342.904 385.547 331.764 401.146 342.264 405.127C352.764 409.108 360.261 412.435 356.15 420.706" stroke="#191919"/>
<path d="M155.138 362.334C155.138 362.334 112.736 397.647 118.768 423.283" stroke="white"/>
<path d="M88.8084 394.976C87.8899 393.697 87.1667 392.302 86.6602 390.832" stroke="#D8D8D8"/>
<path d="M154.812 354.367C154.812 354.367 126.69 377.826 115.883 389.32C107.711 398.016 97.8405 401.864 91.5065 397.596" stroke="#D8D8D8"/>
<path d="M34.5938 402.374C22.636 413.046 17.0407 432.962 53.7081 433.226C95.372 433.522 154.34 433.496 154.34 433.496C154.34 433.496 150.212 422.391 139.952 422.726C129.692 423.062 107.261 414.673 162.964 360.388C179.883 344.865 165.539 338.55 165.539 338.55" stroke="#191919"/>
<path d="M42.9529 370.856C25.3956 382.207 54.5863 389.934 39.7617 398.566" stroke="#191919"/>
<path d="M429.503 435.073C437.797 430.277 445.893 426.3 451.344 428.961C458.539 432.471 445.573 438.845 450.147 439.9" stroke="#D8D8D8"/>
<path d="M424.953 437.74L427.368 436.315" stroke="#D8D8D8"/>
<path d="M385.244 422.296C401.155 417.719 408.54 421.118 404.682 428.948C400.825 436.778 408.234 443.82 417.304 441.521C418.784 441.13 420.197 440.543 421.502 439.777" stroke="#D8D8D8"/>
<path d="M233.925 396.164C231.614 387.67 262.306 335.912 262.306 335.912C257.742 336.375 250.404 344.104 242.633 354.57L246.08 356.447L212.187 410.737L219.78 412.143C231.096 414.261 242.581 409.333 248.332 399.892L261.613 378.115C256.137 374.306 236.237 404.657 233.925 396.164Z" fill="white"/>
<path fill-rule="evenodd" clip-rule="evenodd" d="M274.158 300.003L268.576 296.978L235.76 350.862L246.081 356.48L212.188 410.77L219.781 412.176C231.105 414.288 242.592 409.346 248.333 399.892L266.885 369.425C268.118 367.403 268.449 365.001 267.806 362.748C267.164 360.495 265.6 358.575 263.458 357.411C262.22 356.734 261.796 355.239 262.51 354.069L280.95 323.826C286.036 315.478 282.996 304.814 274.158 300.003V300.003Z" stroke="#191919"/>
<path d="M466.096 408.165C464.592 426.904 500.081 407.986 497.305 426.807C494.529 445.629 523.541 423.532 529.767 429.244C529.767 429.244 534.384 432.556 529.466 434.635" stroke="#D8D8D8" stroke-linecap="round"/>
<path d="M566.833 434.604C569.896 428.764 560.165 429.966 550.851 434.561" stroke="#D8D8D8" stroke-linecap="round"/>
<path d="M366.811 424.827L454.815 221.806L346.278 383.431L366.811 424.827Z" fill="white" stroke="#191919"/>
<path d="M380.47 378.712C380.964 366.491 393.023 349.522 398.526 342.885C410.501 328.397 409.204 311.862 412.418 304.452C423.338 279.245 446.789 233.321 452.464 225.364C439.337 236.641 355.413 377.318 348.855 388.757L363.598 418.495L365.593 422.52C365.593 422.52 362.591 405.775 369.019 398.282C375.448 390.789 379.983 390.94 380.47 378.712Z" fill="#BDBBB9"/>
<path fill-rule="evenodd" clip-rule="evenodd" d="M366.809 424.827L454.813 221.806L346.276 383.431L366.809 424.827Z" stroke="#191919" stroke-width="1.11"/>
<path d="M455.526 219.796L326.113 371.392L337.87 427.93L455.526 219.796Z" fill="black"/>
<path d="M455.526 219.796L319.878 338.179L323.851 360.503L455.526 219.796Z" fill="white"/>
<path d="M323.85 360.503L327.613 369.588L455.525 219.795L366.623 314.816L353.853 328.456C336.773 346.705 324.319 360.009 323.85 360.503Z" fill="#BDBBB9"/>
<path d="M455.526 219.796L319.878 338.179L323.851 360.503" fill="black"/>
<path d="M455.526 219.796L319.878 338.179L323.851 360.503" stroke="#191919" stroke-width="1.11"/>
<path d="M371.752 309.333L366.622 314.816" stroke="#191919" stroke-width="1.11" stroke-linecap="round"/>
<path d="M379.903 300.616C378.901 301.696 377.892 302.769 376.89 303.836" stroke="#191919" stroke-width="1.11" stroke-linecap="round"/>
<path d="M455.525 219.795L383.337 296.923" stroke="#191919" stroke-width="1.11" stroke-linecap="round"/>
<path d="M347.159 335.606C333.612 350.089 324.255 360.075 323.849 360.503L327.612 369.588" stroke="#191919" stroke-width="1.11" stroke-linecap="round"/>
<path d="M353.854 328.456L350.798 331.748" stroke="#191919" stroke-width="1.11" stroke-linecap="round"/>
<path d="M364.79 326.084L455.526 219.796L337.87 427.93L326.113 371.392L357.955 334.091" stroke="#191919" stroke-width="1.11"/>
<path d="M260.309 219.176C263.629 214.711 261.755 208.063 256.123 204.327C250.491 200.591 243.234 201.181 239.914 205.646C236.594 210.11 238.468 216.758 244.1 220.494C249.732 224.231 256.989 223.64 260.309 219.176Z" fill="#191919" stroke="#191919" stroke-width="1.11"/>
<path d="M254.103 215.059C255.403 213.311 254.669 210.709 252.464 209.246C250.26 207.784 247.419 208.015 246.119 209.762C244.819 211.51 245.553 214.112 247.758 215.575C249.962 217.038 252.803 216.807 254.103 215.059Z" fill="white" stroke="#191919" stroke-width="1.11"/>
<path d="M251.567 213.308C250.795 214.355 249.323 214.704 248.12 214.124L238.537 209.479L243.447 202.892L251.247 210.047C252.178 210.917 252.312 212.292 251.567 213.308Z" fill="#BDBBB9"/>
<path d="M252.059 211.924C251.877 212.266 251.145 214.007 247.817 211.912C243.722 209.328 241.536 208.886 238.267 210.752C237.868 210.975 240.45 210.031 240.456 210.394L248.133 214.131C249.337 214.71 250.808 214.362 251.58 213.315C251.882 212.906 252.049 212.422 252.059 211.924Z" fill="#BDBBB9"/>
<path fill-rule="evenodd" clip-rule="evenodd" d="M251.567 213.308C250.795 214.355 249.323 214.704 248.12 214.124L238.537 209.479L243.447 202.892L251.247 210.047C252.178 210.917 252.312 212.292 251.567 213.308V213.308Z" stroke="#191919" stroke-width="1.11"/>
<path d="M250.641 212.771C250.949 212.356 250.774 211.738 250.249 211.39C249.725 211.043 249.05 211.097 248.742 211.511C248.434 211.926 248.609 212.544 249.133 212.892C249.657 213.239 250.332 213.185 250.641 212.771Z" fill="#191919" stroke="#191919" stroke-width="1.11"/>
<path d="M238.312 204.627C236.09 207.688 235.176 211.429 235.754 215.101C238.447 215.797 241.313 214.822 242.917 212.665L248.212 205.551C249.722 203.509 249.812 200.817 248.44 198.688C244.368 199.331 240.728 201.465 238.312 204.627Z" fill="#BDBBB9"/>
<path d="M237.883 212.935C236.159 212.152 238.664 205.73 238.664 205.73C238.546 205.447 238.283 205.24 237.967 205.181C236.01 208.145 235.233 211.67 235.774 215.127C238.467 215.823 241.333 214.849 242.937 212.691L244.746 210.267C243.044 209.22 239.447 213.599 237.883 212.935Z" fill="white"/>
<path d="M246.543 207.79L248.212 205.551C249.722 203.509 249.812 200.816 248.44 198.688C244.448 199.264 240.863 201.321 238.482 204.401C236.101 207.482 235.119 211.333 235.754 215.1C238.447 215.796 241.313 214.822 242.917 212.664L244.684 210.287" stroke="#191919" stroke-width="1.11" stroke-linecap="round"/>
<path d="M238.268 205.63C240.232 205.635 241.829 204.135 241.834 202.28C241.839 200.425 240.25 198.917 238.286 198.911C236.321 198.906 234.724 200.406 234.719 202.261C234.715 204.116 236.303 205.625 238.268 205.63Z" fill="#191919" stroke="#191919" stroke-width="1.11"/>
<path d="M217.556 220.265L327.753 114.537L215.941 189.394L217.556 220.265Z" fill="#BDBBB9" stroke="#191919" stroke-width="1.11"/>
<path d="M238.632 194.722C242.258 187.195 254.411 179.499 259.646 176.675C271.067 170.522 274.751 159.854 278.773 155.99C292.449 142.861 319.598 119.802 325.296 116.181C314.028 120.084 223.311 187.764 216.112 193.315L217.269 215.48L217.429 218.483C217.429 218.483 220.093 207.271 226.154 204.145C232.214 201.02 234.999 202.255 238.632 194.722Z" fill="#BDBBB9"/>
<path fill-rule="evenodd" clip-rule="evenodd" d="M217.556 220.265L327.753 114.537L215.941 189.394L217.556 220.265Z" stroke="#191919" stroke-width="1.11"/>
<path d="M328.734 113.451L206.588 176.982L198.603 215.205L328.734 113.451Z" fill="black"/>
<path d="M328.734 113.451L211.701 154.689L208.132 169.614L328.734 113.451Z" fill="white"/>
<path d="M208.133 169.614L208.01 176.213L328.77 113.451L247.303 151.385L235.611 156.831C219.965 164.115 208.56 169.424 208.133 169.614Z" fill="#BDBBB9"/>
<path d="M328.736 113.451L210.479 152.441L208.133 169.614" fill="black"/>
<path d="M328.736 113.451L210.479 152.441L208.133 169.614" stroke="#191919" stroke-width="1.11"/>
<path d="M252.005 149.2L247.303 151.385" stroke="#191919" stroke-width="1.11" stroke-linecap="round"/>
<path d="M259.498 145.716L256.7 146.989" stroke="#191919" stroke-width="1.11" stroke-linecap="round"/>
<path d="M328.77 113.451C328.77 113.451 294.624 129.364 262.661 144.246" stroke="#191919" stroke-width="1.11" stroke-linecap="round"/>
<path d="M229.481 159.686C217.068 165.467 208.49 169.45 208.133 169.614L208.01 176.213" stroke="#191919" stroke-width="1.11" stroke-linecap="round"/>
<path d="M235.61 156.831L232.811 158.144" stroke="#191919" stroke-width="1.11" stroke-linecap="round"/>
<path d="M243.093 157.993L328.736 113.451L198.605 215.205L206.59 176.982L236.647 161.349" stroke="#191919" stroke-width="1.11"/>
<path d="M451.465 168.248L494.874 107.034L447.655 153.329L451.465 168.248Z" fill="#BDBBB9" stroke="#191919" stroke-width="1.11"/>
<path d="M459.246 153.948C460.277 149.991 465.447 145.141 467.731 143.299C472.703 139.3 473.459 133.771 475.037 131.538C480.425 123.936 491.412 110.318 493.836 108.028C488.713 110.905 451.089 151.867 448.117 155.205L450.884 165.917L451.257 167.37C451.257 167.37 451.454 161.668 454.073 159.609C456.693 157.551 458.208 157.938 459.246 153.948Z" fill="#BDBBB9"/>
<path fill-rule="evenodd" clip-rule="evenodd" d="M451.463 168.248L494.872 107.034L447.653 153.329L451.463 168.248Z" stroke="#191919" stroke-width="1.11"/>
<path d="M495.244 106.421L441.873 148.087L441.717 167.436L495.244 106.421Z" fill="black"/>
<path d="M495.245 106.421L442.185 136.762L441.906 144.358L495.245 106.421Z" fill="white"/>
<path d="M441.898 144.358L442.483 147.593L495.244 106.421L459.227 132.063C457.428 133.345 455.726 134.581 454.053 135.738L441.898 144.358Z" fill="#BDBBB9"/>
<path d="M495.245 106.421L442.185 136.762L441.906 144.358" fill="black"/>
<path d="M495.245 106.421L442.185 136.762L441.906 144.358" stroke="#191919" stroke-width="1.11"/>
<path d="M461.307 130.564L459.207 132.044" stroke="#191919" stroke-width="1.11" stroke-linecap="round"/>
<path d="M464.611 128.21L463.392 129.065" stroke="#191919" stroke-width="1.11" stroke-linecap="round"/>
<path d="M495.245 106.421L466.012 127.217" stroke="#191919" stroke-width="1.11" stroke-linecap="round"/>
<path d="M451.343 137.652L441.898 144.358L442.483 147.593" stroke="#191919" stroke-width="1.11" stroke-linecap="round"/>
<path d="M454.052 135.719L452.82 136.6" stroke="#191919" stroke-width="1.11" stroke-linecap="round"/>
<path d="M457.826 135.636L495.244 106.421L441.717 167.436L441.873 148.087L455.004 137.833" stroke="#191919" stroke-width="1.11"/>
<path d="M201.524 433.398L373.585 157.446L181.017 369.544L201.524 433.398Z" fill="#E3E2DC" stroke="#191919" stroke-width="1.11"/>
<path d="M231.474 369.475C234.897 351.909 256.04 329.784 265.483 321.27C285.988 302.734 287.779 278.564 294.054 268.49C315.404 234.229 359.45 172.508 369.367 162.088C347.91 175.79 195.517 362.482 183.547 377.668L198.274 423.516L200.27 429.725C200.27 429.725 199.638 404.935 210.586 395.382C221.535 385.829 228.059 387.041 231.474 369.475Z" fill="#BDBBB9"/>
<path fill-rule="evenodd" clip-rule="evenodd" d="M201.526 433.398L373.587 157.446L181.019 369.544L201.526 433.398Z" stroke="#191919" stroke-width="1.11"/>
<path d="M375.047 154.678L154.547 348.176L158.065 433.01L375.047 154.678Z" fill="black"/>
<path d="M375.047 154.678L152.722 299.149L153.682 331.998L375.047 154.678Z" fill="white"/>
<path d="M153.682 331.997L157.104 345.905L375.047 154.678C375.047 154.678 290.222 222.651 225.608 274.424L204.142 291.624C175.407 314.613 154.474 331.379 153.682 331.997Z" fill="#BDBBB9"/>
<path d="M375.049 154.678L152.724 299.149L153.684 331.998" fill="black"/>
<path d="M375.049 154.678L152.724 299.149L153.684 331.998" stroke="#191919" stroke-width="1.11"/>
<path d="M234.209 267.517L225.608 274.424" stroke="#191919" stroke-width="1.11" stroke-linecap="round"/>
<path d="M247.922 256.519L242.858 260.578" stroke="#191919" stroke-width="1.11" stroke-linecap="round"/>
<path d="M375.047 154.678L253.726 251.915" stroke="#191919" stroke-width="1.11" stroke-linecap="round"/>
<path d="M192.875 300.629C170.093 318.875 154.356 331.465 153.656 331.997L157.078 345.906" stroke="#191919" stroke-width="1.11" stroke-linecap="round"/>
<path d="M204.121 291.624L198.995 295.729" stroke="#191919" stroke-width="1.11" stroke-linecap="round"/>
<path d="M220.442 290.348L375.047 154.678L158.065 433.01L154.547 348.176L208.8 300.566" stroke="#191919" stroke-width="1.11"/>
<path d="M390.866 434.131L397.848 434.15L390.866 434.131Z" fill="#CECCCC"/>
<path d="M390.866 434.131L397.848 434.15" stroke="#191919" stroke-width="1.11" stroke-linecap="round"/>
<path d="M371.761 434.079L380.196 434.102L371.761 434.079Z" fill="#CECCCC"/>
<path d="M371.761 434.079L380.196 434.102" stroke="#191919" stroke-width="1.11" stroke-linecap="round"/>
<path d="M112.773 433.384L365.394 434.063L112.773 433.384Z" fill="#CECCCC"/>
<path d="M112.773 433.384L365.394 434.063" stroke="#191919" stroke-width="1.11" stroke-linecap="round"/>
<path d="M454.948 434.303L599.879 434.692L454.948 434.303Z" fill="#CECCCC"/>
<path d="M454.948 434.303L599.879 434.692" stroke="#191919" stroke-width="1.11" stroke-linecap="round"/>
<path d="M438.903 434.26L444.676 434.276L438.903 434.26Z" fill="#CECCCC"/>
<path d="M438.903 434.26L444.676 434.276" stroke="#191919" stroke-width="1.11" stroke-linecap="round"/>
<path d="M265.962 382.793C265.962 382.793 271.104 378.333 273.659 379.079C276.215 379.825 270.279 380.97 271.183 382.504C272.088 384.037 263.229 385.67 265.962 382.793Z" fill="white"/>
<path d="M276.172 377.58C276.172 377.58 279.739 376.521 279.797 378.111C279.856 379.702 273.547 379.197 276.172 377.58Z" fill="white"/>
<path d="M49.4376 391.471C49.4376 391.471 52.3311 401.775 42.0997 404.506" stroke="#D8D8D8" stroke-width="1.11" stroke-linecap="round"/>
<path d="M44.2662 344.243C43.4915 343.192 42.823 342.075 42.2695 340.905" stroke="#D8D8D8" stroke-width="1.11" stroke-linecap="round"/>
<path d="M70.0052 344.306C59.7122 349.182 52.6501 350.621 47.634 347.433" stroke="#D8D8D8" stroke-width="1.11" stroke-linecap="round"/>
<path d="M155.949 341.211C155.949 341.211 116.696 372.176 106.453 368.704C96.2103 365.231 103.451 325.976 81.3763 338.324" stroke="#D8D8D8" stroke-width="1.11" stroke-linecap="round"/>
<path d="M263.244 348.151C263.244 348.151 274.866 345.245 276.477 364.864" stroke="#D8D8D8" stroke-width="1.11" stroke-linecap="round"/>
<path d="M98.5736 308.137C108.397 306.54 116.965 306.207 117.245 313.922" stroke="#D8D8D8" stroke-width="1.11" stroke-linecap="round"/>
<path d="M118.946 242.439C118.946 242.439 79.1302 269.688 70.1284 298.597C65.4336 313.684 78.2763 311.785 91.7635 309.346" stroke="#D8D8D8" stroke-width="1.11" stroke-linecap="round"/>
<path d="M62.7221 295.363C62.2269 296.541 61.8128 297.748 61.4825 298.976" stroke="#D8D8D8" stroke-width="1.11" stroke-linecap="round"/>
<path d="M86.9941 265.789C86.9941 265.789 71.0952 278.946 64.0845 292.456" stroke="#D8D8D8" stroke-width="1.11" stroke-linecap="round"/>
<path d="M326.806 271.687C329.831 271.886 332.729 272.785 332.064 275.66C330.749 281.293 332.286 286.999 357.971 257.185C367.084 246.604 374.507 238.348 380.135 232.258" stroke="#D8D8D8" stroke-width="1.11" stroke-linecap="round"/>
<path d="M320.782 271.974C321.877 271.816 322.981 271.713 324.088 271.666" stroke="#D8D8D8" stroke-width="1.11" stroke-linecap="round"/>
<path d="M336.282 251.478C336.282 251.478 342.131 249.131 338.864 258.177C335.597 267.222 338.483 272.51 346.596 264.619C354.71 256.728 365.25 246.005 365.25 246.005" stroke="#D8D8D8" stroke-width="1.11" stroke-linecap="round"/>
<mask id="mask1_916_1293" style="mask-type:luminance" maskUnits="userSpaceOnUse" x="503" y="291" width="58" height="111">
<path fill-rule="evenodd" clip-rule="evenodd" d="M544.918 366.436C543.447 362 542.652 357.389 542.558 352.742C542.43 327.551 553.428 291.506 553.428 291.506C553.428 291.506 499.92 316.956 503.242 360.16C503.242 360.16 514.712 382.682 540.763 401.555C541.43 399.686 542.409 397.931 543.663 396.355C544.163 397.928 544.905 399.422 545.867 400.79C551.974 398.285 560.791 383.717 560.791 383.717C560.791 383.717 549.961 380.361 544.918 366.436Z" fill="white"/>
</mask>
<g mask="url(#mask1_916_1293)">
<path d="M544.918 366.436C543.447 362 542.652 357.389 542.558 352.742C542.43 327.551 553.428 291.506 553.428 291.506C553.428 291.506 499.92 316.956 503.242 360.16C503.242 360.16 514.712 382.682 540.763 401.555C541.43 399.686 542.409 397.931 543.663 396.355C544.163 397.928 544.905 399.422 545.867 400.79C551.974 398.285 560.791 383.717 560.791 383.717C560.791 383.717 549.961 380.361 544.918 366.436Z" fill="#B0B0B0"/>
<g opacity="0.43">
<path d="M541.713 303.176C541.713 303.176 518.394 373.07 559.043 389.487" stroke="#191919" stroke-width="1.11"/>
<path d="M530.485 302.295C530.485 302.295 512.08 374.373 550.825 392.105" stroke="#191919" stroke-width="1.11"/>
<path d="M516.999 314.784C516.999 314.784 507.94 385.911 548.322 397.51" stroke="#191919" stroke-width="1.11"/>
</g>
</g>
<path fill-rule="evenodd" clip-rule="evenodd" d="M544.918 366.436C543.447 362 542.652 357.389 542.558 352.742C542.43 327.551 553.428 291.507 553.428 291.507C553.428 291.507 499.92 316.957 503.242 360.16C503.242 360.16 514.712 382.683 540.763 401.555C541.43 399.687 542.409 397.932 543.663 396.356C544.163 397.928 544.905 399.422 545.867 400.79C551.974 398.285 560.791 383.717 560.791 383.717C560.791 383.717 549.961 380.362 544.918 366.436V366.436Z" stroke="#191919" stroke-width="1.11" stroke-linecap="round"/>
<path d="M561.168 383.87C560.206 383.089 557.464 384.216 554.264 386.386C555.44 388.369 556.644 390.293 557.848 392.13C560.661 388.191 562.312 384.804 561.168 383.87Z" fill="#191919" stroke="#191919" stroke-width="1.11" stroke-linecap="round"/>
<path d="M552.066 296.274C552.066 296.274 538.36 320.405 539.491 333.826C540.622 347.246 519.327 352.91 525.438 362.279C531.549 371.647 522.037 382.431 524.245 387.526C516.713 379.388 511.886 373.277 508.698 365.916C505.51 358.556 511.765 296.087 552.066 296.274Z" fill="#191919" stroke="#191919" stroke-width="1.11" stroke-linecap="round"/>
<path d="M557.848 392.13C556.644 390.292 555.44 388.368 554.264 386.385C551.214 388.493 548.426 390.921 545.957 393.623C543.041 396.822 541.412 399.55 540.764 401.581C542.322 402.707 543.931 403.811 545.591 404.894C550.791 408.326 556.251 411.394 561.926 414.072C560.525 428.416 557.395 433.37 558.569 433.202C559.744 433.033 569.377 418.764 571.601 412.778C570.791 410.017 564.418 402.225 557.848 392.13Z" fill="white" stroke="#191919" stroke-width="1.11" stroke-linecap="round"/>
<path d="M483.128 405.4C484.623 418.735 486.873 426.529 486.873 426.529C486.873 426.529 476.547 430.731 469.338 432.362C469.332 434.388 491.697 433.742 493.479 433.747C495.272 424.268 497.47 415.093 499.954 406.276C494.304 407.608 488.331 406.892 483.128 405.4Z" fill="white" stroke="#191919" stroke-width="1.11" stroke-linecap="round"/>
<mask id="mask2_916_1293" style="mask-type:luminance" maskUnits="userSpaceOnUse" x="470" y="260" width="84" height="147">
<path fill-rule="evenodd" clip-rule="evenodd" d="M503.763 283.447C520.304 226.167 553.422 294.041 553.422 294.041C553.422 294.041 520.754 337.055 501.73 400.097C501.117 402.122 500.525 404.166 499.939 406.237C494.345 407.608 488.33 406.865 483.113 405.399C478.572 404.126 474.275 402.179 470.382 399.63C470.591 394.476 471.932 342.811 502.619 287.72C503.095 286.32 503.477 284.893 503.763 283.447Z" fill="white"/>
</mask>
<g mask="url(#mask2_916_1293)">
<path d="M503.763 283.447C520.304 226.167 553.422 294.041 553.422 294.041C553.422 294.041 520.754 337.055 501.73 400.097C501.117 402.122 500.525 404.166 499.939 406.237C494.345 407.608 488.33 406.865 483.113 405.399C478.572 404.126 474.275 402.179 470.382 399.63C470.591 394.476 471.932 342.811 502.619 287.72C503.095 286.32 503.477 284.893 503.763 283.447Z" fill="#B0B0B0"/>
<g opacity="0.43">
<path d="M512.964 279.241C512.964 279.241 475.96 334.348 477.181 420.681" stroke="#191919" stroke-width="1.11"/>
<path d="M523.801 279.95C523.801 279.95 484.627 333.711 482.424 420.022" stroke="#191919" stroke-width="1.11"/>
<path d="M538.78 281.541C538.78 281.541 495.665 332.553 486.964 418.477" stroke="#191919" stroke-width="1.11"/>
<path d="M554.522 285.477C554.522 285.477 507.78 333.569 492.876 418.717" stroke="#191919" stroke-width="1.11"/>
</g>
</g>
<path fill-rule="evenodd" clip-rule="evenodd" d="M503.763 283.447C520.304 226.167 553.422 294.041 553.422 294.041C553.422 294.041 520.754 337.055 501.73 400.097C501.117 402.122 500.525 404.166 499.939 406.237C494.345 407.608 488.33 406.865 483.113 405.399C478.572 404.126 474.275 402.179 470.382 399.63C470.591 394.476 471.932 342.811 502.619 287.72C503.095 286.32 503.477 284.893 503.763 283.447V283.447Z" stroke="#191919" stroke-width="1.11" stroke-linecap="round"/>
<mask id="mask3_916_1293" style="mask-type:luminance" maskUnits="userSpaceOnUse" x="492" y="219" width="42" height="48">
<path fill-rule="evenodd" clip-rule="evenodd" d="M532.823 233.414C527.401 233.029 516.855 243.745 510.933 236.925C507.861 233.386 508.86 228.34 510.758 224.036C510.571 224.063 510.382 224.08 510.192 224.087L510.579 223.197L497.543 219.057C497.543 219.057 486.32 234.272 497.297 253.427L497.457 253.712L497.624 254.009C502.319 261.981 511.526 265.959 511.526 265.959C521.603 268.923 538.252 233.798 532.823 233.414Z" fill="white"/>
</mask>
<g mask="url(#mask3_916_1293)">
<path d="M532.823 233.414C527.401 233.029 516.855 243.745 510.933 236.925C507.861 233.386 508.86 228.34 510.758 224.036C510.571 224.063 510.382 224.08 510.192 224.087L510.579 223.197L497.543 219.057C497.543 219.057 486.32 234.272 497.297 253.427L497.457 253.712L497.624 254.009C502.319 261.981 511.526 265.959 511.526 265.959C521.603 268.923 538.252 233.798 532.823 233.414Z" fill="black"/>
<path d="M507.172 224.105C507.172 224.105 500.698 240.64 511.656 243.335C520.588 245.531 524.854 236.382 533.615 237.507" stroke="white" stroke-width="1.11" stroke-linecap="round"/>
<path d="M503.562 223.066C503.562 223.066 492.002 252.278 519.273 248.781" stroke="white" stroke-width="1.11" stroke-linecap="round"/>
</g>
<path d="M521.233 244.925C521.233 244.925 507.544 254.893 498.534 255.424C501.035 258.473 505.341 263.157 508.911 263.655C512.48 264.153 519.724 249.825 519.724 249.825" fill="#191919"/>
<path d="M521.233 244.925C521.233 244.925 507.544 254.893 498.534 255.424C501.035 258.473 505.341 263.157 508.911 263.655C512.48 264.153 519.724 249.825 519.724 249.825" stroke="#191919" stroke-width="1.11"/>
<path fill-rule="evenodd" clip-rule="evenodd" d="M532.823 233.414C527.401 233.029 516.855 243.745 510.933 236.925C507.861 233.386 508.86 228.34 510.758 224.036C510.571 224.063 510.382 224.08 510.192 224.087L510.579 223.197L497.543 219.057C497.543 219.057 486.32 234.272 497.297 253.427L497.457 253.712L497.624 254.009C502.319 261.981 511.526 265.959 511.526 265.959C521.603 268.923 538.252 233.798 532.823 233.414V233.414Z" stroke="#191919" stroke-width="1.11" stroke-linecap="round"/>
<mask id="mask4_916_1293" style="mask-type:luminance" maskUnits="userSpaceOnUse" x="500" y="232" width="60" height="69">
<path fill-rule="evenodd" clip-rule="evenodd" d="M533.137 233.461C535.305 232.919 537.681 232.866 541.615 233.055C541.615 233.055 558.744 235.648 559.536 265.811C560.174 288.641 556.321 305.123 520.89 299.629C479.278 293.175 513.215 256.302 521.233 244.926C522.353 244.269 530.74 256.877 533.144 233.461" fill="white"/>
</mask>
<g mask="url(#mask4_916_1293)">
<path d="M533.137 233.461C535.305 232.919 537.681 232.866 541.615 233.055C541.615 233.055 558.744 235.648 559.536 265.811C560.174 288.641 556.321 305.123 520.89 299.629C479.278 293.175 513.215 256.302 521.233 244.926" fill="black"/>
<path d="M515.185 253.938C515.185 253.938 525.746 266.321 559.537 265.514C566.504 273.716 559.214 276.567 559.214 276.567C559.214 276.567 524.25 284.809 507.493 263.645C502.316 252.583 515.185 253.938 515.185 253.938Z" fill="white"/>
</g>
<path d="M505.881 218.604C501.733 217.445 498.043 217.567 497.634 218.873C497.225 220.178 499.855 221.888 503.563 223.066C504.685 221.512 505.73 220.095 506.572 218.804C506.349 218.738 506.118 218.664 505.881 218.604Z" fill="#191919" stroke="#191919" stroke-width="1.11" stroke-linecap="round"/>
<path d="M541.594 233.055C541.594 233.055 558.722 235.648 559.515 265.811C560.152 288.641 556.066 306.33 520.869 299.629C479.261 291.703 513.193 256.302 521.212 244.925" stroke="#191919" stroke-width="1.11" stroke-linecap="round"/>
<path d="M432.269 256.243C428.432 258.364 425.654 261.848 424.556 265.917L429.288 273.387C430.384 269.316 433.162 265.829 437.001 263.707L432.269 256.243Z" fill="#191919" stroke="#191919" stroke-width="1.11"/>
<path d="M437 263.706C433.161 265.829 430.383 269.315 429.286 273.387L434.025 280.851C435.123 276.781 437.901 273.297 441.739 271.177L437 263.706Z" fill="white" stroke="#191919" stroke-width="1.11"/>
<path d="M427.529 248.772C423.689 250.893 420.911 254.381 419.816 258.453L424.548 265.917C425.646 261.847 428.424 258.363 432.261 256.242L427.529 248.772Z" fill="white" stroke="#191919" stroke-width="1.11"/>
<path d="M434.035 280.851L438.767 288.321C439.864 284.25 442.642 280.764 446.48 278.64L441.748 271.176C437.91 273.297 435.132 276.781 434.035 280.851Z" fill="#191919" stroke="#191919" stroke-width="1.11"/>
<path d="M437.001 263.706L441.733 271.177C445.444 269.194 449.697 268.302 453.948 268.616L449.216 261.145C444.965 260.834 440.712 261.725 437.001 263.706Z" fill="#191919" stroke="#191919" stroke-width="1.11"/>
<path d="M444.478 253.682L439.746 246.211C435.494 245.901 431.242 246.793 427.53 248.772L432.269 256.242C435.977 254.259 440.228 253.368 444.478 253.682Z" fill="#191919" stroke="#191919" stroke-width="1.11"/>
<path d="M449.216 261.146L444.477 253.682C440.228 253.368 435.976 254.259 432.268 256.243L437 263.706C440.712 261.725 444.965 260.834 449.216 261.146Z" fill="white" stroke="#191919" stroke-width="1.11"/>
<path d="M441.733 271.177L446.465 278.64C450.177 276.661 454.43 275.769 458.681 276.079L453.949 268.616C449.697 268.302 445.444 269.194 441.733 271.177Z" fill="white" stroke="#191919" stroke-width="1.11"/>
<path d="M447.257 253.986C446.332 253.839 445.399 253.737 444.463 253.682L449.202 261.145C450.139 261.199 451.072 261.303 451.996 261.456C455.489 262.03 459.082 261.39 462.113 259.655L457.374 252.185C454.345 253.924 450.75 254.564 447.257 253.986Z" fill="#191919" stroke="#191919" stroke-width="1.11"/>
<path d="M447.257 253.986C450.747 254.562 454.339 253.922 457.367 252.185L452.635 244.722C449.606 246.455 446.015 247.094 442.525 246.523C441.6 246.37 440.667 246.266 439.73 246.212L444.462 253.682C445.399 253.737 446.332 253.839 447.257 253.986Z" fill="white" stroke="#191919" stroke-width="1.11"/>
<path d="M451.99 261.457C451.065 261.304 450.132 261.2 449.195 261.146L453.927 268.616C454.864 268.672 455.796 268.773 456.722 268.92C460.212 269.496 463.804 268.856 466.832 267.119L462.1 259.656C459.071 261.389 455.48 262.028 451.99 261.457Z" fill="white" stroke="#191919" stroke-width="1.11"/>
<path d="M456.728 268.92C455.803 268.773 454.87 268.671 453.933 268.616L458.665 276.079C459.602 276.134 460.535 276.238 461.46 276.39C464.959 276.972 468.563 276.332 471.598 274.59L466.866 267.119C463.83 268.862 460.227 269.502 456.728 268.92Z" fill="#191919" stroke="#191919" stroke-width="1.11"/>
<path d="M452.635 244.721L457.368 252.185C460.923 250.102 463.498 246.539 464.893 242.226C463.149 239.409 461.688 236.445 460.528 233.371C459.119 237.69 456.191 242.639 452.635 244.721H452.635Z" fill="#191919" stroke="#191919" stroke-width="1.11"/>
<path d="M462.107 259.656C465.662 257.573 468.23 254.009 469.625 249.69L464.893 242.227C463.484 246.539 460.923 250.103 457.368 252.185L462.107 259.656Z" fill="white" stroke="#191919" stroke-width="1.11"/>
<path d="M471.598 274.59C475.154 272.507 477.988 268.476 479.383 264.157C478.903 263.396 476.771 260.922 474.384 257.161C472.975 261.473 470.421 265.037 466.866 267.119L471.598 274.59Z" fill="white" stroke="#191919" stroke-width="1.11"/>
<path d="M466.838 267.119C470.394 265.037 472.961 261.473 474.356 257.161L469.624 249.691C468.215 254.01 465.662 257.599 462.106 259.656L466.838 267.119Z" fill="#191919" stroke="#191919" stroke-width="1.11"/>
<path d="M459.139 230.53C464.136 240.839 475.397 260.681 496.588 282.939" stroke="#191919" stroke-width="3.34" stroke-linecap="round"/>
<path d="M540.715 214.17C540.715 214.17 536.123 211.848 534.931 213.237C533.739 214.627 531.558 217.538 530.523 215.351C529.487 213.163 526.279 213.439 525.552 216.123C524.825 218.807 529.179 218.918 528.567 220.348C527.955 221.778 525.995 225.476 531.002 224.473C536.008 223.47 540.875 216.989 540.715 214.17Z" fill="#191919" stroke="#191919" stroke-width="1.11"/>
<mask id="mask5_916_1293" style="mask-type:luminance" maskUnits="userSpaceOnUse" x="505" y="248" width="51" height="49">
<path fill-rule="evenodd" clip-rule="evenodd" d="M536.018 248.826C536.018 248.826 541.131 278.142 510.48 275.651L510.48 275.77C510.256 275.696 510.068 275.637 509.956 275.61C507.756 275.063 506.084 291.439 505.1 296.095C516.02 296.566 526.876 294.283 536.551 289.481C538.93 288.372 541.162 287.002 543.201 285.401C543.544 285.138 543.726 284.986 543.726 284.986L543.692 284.986C554.849 275.836 555.765 262.659 555.765 262.659C555.717 261.966 557.713 245.003 536.018 248.826Z" fill="white"/>
</mask>
<g mask="url(#mask5_916_1293)">
<path d="M536.018 248.826C536.018 248.826 541.131 278.142 510.48 275.651L510.48 275.77C510.256 275.696 510.068 275.637 509.956 275.61C507.756 275.063 506.084 291.439 505.1 296.095C516.02 296.566 526.876 294.283 536.551 289.481C538.93 288.372 541.162 287.002 543.201 285.401C543.544 285.138 543.726 284.986 543.726 284.986L543.692 284.986C554.849 275.836 555.765 262.659 555.765 262.659C555.717 261.966 557.713 245.003 536.018 248.826Z" fill="black"/>
</g>
<path d="M533.767 235.779C533.767 235.779 546.431 253.731 537.57 269.177C531.139 280.419 517.614 281.088 510.725 280.614" stroke="white" stroke-linecap="round"/>
<path d="M538.046 232.642C538.046 232.642 553.144 254.699 541.488 272.764C534.323 283.852 518.037 285.201 510.056 285.153" stroke="white" stroke-linecap="round"/>
<path d="M536.017 248.826C536.017 248.826 541.131 278.142 510.479 275.651L510.479 275.77C510.256 275.696 510.067 275.637 509.955 275.61C507.756 275.063 506.083 291.439 505.099 296.095C516.02 296.566 526.875 294.283 536.551 289.481C538.929 288.372 541.161 287.002 543.201 285.401C543.544 285.138 543.726 284.986 543.726 284.986L543.691 284.986C554.848 275.836 555.764 262.659 555.764 262.659" stroke="#191919" stroke-linecap="round"/>
<path d="M504.658 296.147C505.874 296.394 507.594 293.515 508.933 289.367C507.223 288.534 505.575 287.592 503.999 286.549C503.049 291.747 503.289 295.893 504.658 296.147Z" fill="#191919" stroke="#191919" stroke-linecap="round"/>
<path d="M510.479 275.651C509.982 275.616 509.486 275.569 508.976 275.508L508.103 275.407C489.939 273.206 491.068 269.078 490.2 269.623C489.332 270.169 490.972 273.849 490.972 273.849C490.972 273.849 483.613 276.628 491.197 281.024C493.331 282.66 493.151 279.333 495.874 280.257C497.047 280.657 498.823 283.169 503.999 286.569C505.574 287.612 507.223 288.553 508.932 289.387C509.277 288.305 509.602 287.138 509.878 285.911C510.889 281.466 511.074 277.52 510.479 275.651Z" fill="white" stroke="#191919" stroke-linecap="round"/>
<path d="M535.054 217.336C535.054 217.336 524.509 227.517 533.487 231.079C532.47 235.036 528.788 244.926 530.228 244.929C531.667 244.933 542.313 238.804 542.183 232.818C542.052 226.832 541.52 211.368 535.054 217.336Z" fill="white" stroke="#191919"/>
<path d="M539.314 215.612C539.314 215.612 536.13 219.563 537.273 223.401C538.416 227.238 540.34 221.158 540.955 221.365C542.972 222.03 540.935 228.756 542.74 227.877C544.545 226.997 544.145 225.241 545.259 226.788C546.373 228.335 550.267 227.857 550.632 224.558C550.997 221.26 547.841 222.749 549.029 220.403C550.216 218.057 547.383 213.832 539.314 215.612Z" fill="#191919" stroke="#191919"/>
<path d="M538.226 230.353C536.817 231.194 535.105 231.456 533.486 231.079L538.226 230.353Z" fill="#F9896E"/>
<path d="M538.226 230.353C536.817 231.194 535.105 231.456 533.486 231.079" stroke="#191919" stroke-linecap="round"/>
<path d="M533.486 231.079C535.105 231.456 536.817 231.194 538.226 230.353C538.621 231.773 534.716 236.316 531.963 236.124C532.724 233.849 533.486 231.079 533.486 231.079Z" fill="#191919" stroke="#191919"/>
<path d="M560.681 217.2C560.92 215.996 555.362 213.997 548.265 212.734C541.168 211.471 535.221 211.423 534.981 212.626C534.741 213.83 540.3 215.829 547.397 217.092C554.493 218.355 560.441 218.403 560.681 217.2Z" fill="#F1F1F1" stroke="#191919"/>
<path d="M534.934 212.65C535.72 208.877 544.281 203.363 548.277 204.107C552.272 204.85 550.185 211.569 549.4 215.329" fill="white"/>
<path d="M534.932 212.65C535.718 208.877 544.279 203.363 548.275 204.107C552.27 204.85 550.31 211.431 549.524 215.204" stroke="#191919" stroke-width="1.11" stroke-linecap="round"/>
<path d="M534.939 210.327C535.114 211.403 535.927 212.288 537.03 212.603" stroke="#191919" stroke-width="1.11" stroke-linecap="round"/>
<path d="M534.219 220.838L531.773 223.353C531.686 223.446 531.656 223.574 531.694 223.693C531.733 223.811 531.833 223.903 531.96 223.934L533.357 224.255" stroke="#191919" stroke-width="1.11" stroke-linecap="round"/>
<path d="M513.374 214.77C515.775 210.982 508.959 208.937 508.561 214.361C508.466 215.628 507.694 217.104 506.571 218.804C505.729 220.122 504.684 221.511 503.561 223.066L504.406 223.319C506.452 223.953 508.611 224.197 510.757 224.036C511.137 223.179 511.551 222.348 511.979 221.564C513.056 219.551 514.357 217.652 515.859 215.899C517.681 213.996 515.228 214.339 513.374 214.77Z" fill="white"/>
<path d="M513.875 213.372C513.875 213.372 512.948 217.33 509.59 216.331L513.875 213.372Z" fill="#F5896F"/>
<path d="M509.55 158.702C506.015 156.157 501.547 155.057 497.147 155.647L491.635 162.621C496.034 162.033 500.5 163.131 504.038 165.67L509.55 158.702Z" fill="#191919" stroke="#191919" stroke-width="1.11"/>
<path d="M504.039 165.67C500.499 163.129 496.031 162.031 491.629 162.621L486.118 169.595C490.519 169.003 494.989 170.101 498.528 172.644L504.039 165.67Z" fill="white" stroke="#191919" stroke-width="1.11"/>
<path d="M515.062 151.728C511.533 149.193 507.077 148.095 502.686 148.679L497.147 155.647C501.547 155.057 506.015 156.157 509.55 158.703L515.062 151.728Z" fill="white" stroke="#191919" stroke-width="1.11"/>
<path d="M486.125 169.595L480.614 176.569C485.015 175.977 489.485 177.075 493.024 179.619L498.535 172.644C494.997 170.101 490.527 169.003 486.125 169.595Z" fill="#191919" stroke="#191919" stroke-width="1.11"/>
<path d="M504.04 165.67L498.528 172.644C501.878 175.133 504.368 178.508 505.679 182.339L511.198 175.391C509.889 171.55 507.397 168.165 504.04 165.67V165.67Z" fill="#191919" stroke="#191919" stroke-width="1.11"/>
<path d="M516.71 168.397L522.221 161.422C520.91 157.591 518.417 154.215 515.063 151.728L509.552 158.702C512.907 161.188 515.4 164.564 516.71 168.397Z" fill="#191919" stroke="#191919" stroke-width="1.11"/>
<path d="M511.196 175.391L516.707 168.423C515.398 164.591 512.905 161.215 509.549 158.729L504.038 165.67C507.395 168.166 509.888 171.55 511.196 175.391Z" fill="white" stroke="#191919" stroke-width="1.11"/>
<path d="M498.534 172.644L493.022 179.618C496.374 182.106 498.864 185.481 500.173 189.313L505.685 182.338C504.374 178.508 501.884 175.133 498.534 172.644V172.644Z" fill="white" stroke="#191919" stroke-width="1.11"/>
<path d="M517.463 170.939C517.262 170.079 517.01 169.23 516.708 168.397L511.196 175.391C511.498 176.226 511.75 177.078 511.951 177.94C512.721 181.207 514.716 184.1 517.569 186.086L523.08 179.112C520.222 177.119 518.226 174.216 517.463 170.939Z" fill="#191919" stroke="#191919" stroke-width="1.11"/>
<path d="M517.463 170.94C518.233 174.206 520.228 177.099 523.08 179.085L528.592 172.138C525.74 170.152 523.744 167.258 522.974 163.992C522.775 163.122 522.523 162.265 522.219 161.422L516.708 168.397C517.01 169.23 517.262 170.079 517.463 170.94Z" fill="white" stroke="#191919" stroke-width="1.11"/>
<path d="M511.951 177.914C511.75 177.051 511.498 176.2 511.196 175.364L505.684 182.339C505.986 183.173 506.24 184.022 506.446 184.882C507.207 188.15 509.202 191.045 512.057 193.027L517.569 186.06C514.716 184.074 512.721 181.18 511.951 177.914Z" fill="white" stroke="#191919" stroke-width="1.11"/>
<path d="M506.446 184.881C506.24 184.022 505.986 183.173 505.684 182.338L500.173 189.313C500.477 190.146 500.732 190.995 500.935 191.856C501.697 195.123 503.691 198.018 506.545 200.001L512.057 193.027C509.202 191.045 507.207 188.15 506.446 184.881Z" fill="#191919" stroke="#191919" stroke-width="1.11"/>
<path d="M528.592 172.138L523.081 179.112C526.471 181.424 530.941 182.314 535.701 181.898C537.647 179.447 539.754 177.114 542.01 174.913C537.236 175.302 531.969 174.43 528.592 172.138V172.138Z" fill="#191919" stroke="#191919" stroke-width="1.11"/>
<path d="M517.569 186.06C520.959 188.372 525.429 189.262 530.19 188.839L535.701 181.871C530.941 182.288 526.471 181.398 523.081 179.086L517.569 186.06Z" fill="white" stroke="#191919" stroke-width="1.11"/>
<path d="M506.546 200.002C509.936 202.314 514.406 203.204 519.166 202.788L524.678 195.813C519.918 196.236 515.447 195.346 512.057 193.027L506.546 200.002Z" fill="white" stroke="#191919" stroke-width="1.11"/>
<path d="M512.057 193.027C515.448 195.346 519.918 196.236 524.678 195.813L530.19 188.839C525.429 189.262 520.959 188.372 517.569 186.06L512.057 193.027Z" fill="#191919" stroke="#191919" stroke-width="1.11"/>
<path d="M508.346 221.376C507.942 221.373 507.568 221.174 507.355 220.849C507.143 220.524 507.123 220.118 507.302 219.776C507.443 219.512 521.433 193.56 542.416 173.864C542.873 173.433 543.613 173.434 544.069 173.865C544.525 174.296 544.525 174.995 544.068 175.426C523.345 194.879 509.53 220.515 509.389 220.772C509.19 221.143 508.787 221.377 508.346 221.376Z" fill="#191919"/>
<path d="M508.361 215.991C508.361 215.991 510.364 217.006 511.729 216.257C513.094 215.508 514.96 212.867 512.804 211.409C510.649 209.951 508.889 212.171 508.661 213.629C508.434 215.087 508.361 215.991 508.361 215.991Z" fill="white"/>
<path fill-rule="evenodd" clip-rule="evenodd" d="M513.374 214.77C515.775 210.982 508.959 208.937 508.561 214.361C508.466 215.628 507.694 217.104 506.571 218.804C505.729 220.122 504.684 221.511 503.561 223.066L504.406 223.319C506.452 223.953 508.611 224.197 510.757 224.036C511.137 223.179 511.551 222.348 511.979 221.564C513.056 219.551 514.357 217.652 515.859 215.899C517.681 213.996 515.228 214.339 513.374 214.77V214.77Z" stroke="#191919" stroke-width="1.11" stroke-linecap="round"/>
<path d="M513.875 213.372C513.875 213.372 512.948 217.33 509.59 216.331" stroke="#191919" stroke-width="1.11" stroke-linecap="round"/>
<path d="M568.262 407.192C568.262 407.192 565.992 409.324 563.875 411.734C560.485 409.415 558.022 410.86 557.828 412.576C557.607 414.476 561.45 414.671 561.45 414.671C560.013 429.008 557.395 433.416 558.569 433.235C559.744 433.053 569.377 418.797 571.602 412.811C571.339 411.879 569.515 409.03 568.262 407.192Z" fill="white"/>
<path d="M568.262 407.192C568.262 407.192 565.992 409.324 563.875 411.734C560.485 409.415 558.022 410.86 557.828 412.576C557.607 414.476 561.45 414.671 561.45 414.671C560.013 429.008 557.395 433.416 558.569 433.235C559.744 433.053 569.377 418.797 571.602 412.811C571.339 411.879 569.515 409.03 568.262 407.192Z" fill="#191919"/>
<path fill-rule="evenodd" clip-rule="evenodd" d="M568.262 407.192C568.262 407.192 565.992 409.324 563.875 411.734C560.485 409.415 558.022 410.86 557.828 412.576C557.607 414.476 561.45 414.671 561.45 414.671C560.013 429.008 557.395 433.416 558.569 433.235C559.744 433.053 569.377 418.797 571.602 412.811C571.339 411.879 569.515 409.03 568.262 407.192V407.192Z" stroke="#191919"/>
<path d="M559.388 417.338C559.388 417.338 562.766 416.12 563.802 418.142" stroke="white"/>
<path d="M558.487 420.095C558.487 420.095 561.866 418.876 562.902 420.898" stroke="white"/>
<path d="M557.591 422.85C557.591 422.85 560.969 421.632 561.998 423.654" stroke="white"/>
<path d="M489.563 426.496C488.725 421.274 483.66 420.593 483.107 423.41C482.732 425.349 484.169 426.356 485.193 427.375C481.989 428.621 474.756 431.307 469.309 432.56C469.303 434.586 491.668 433.907 493.45 433.911C493.89 431.563 494.364 429.241 494.866 426.933C494.866 426.926 491.946 426.549 489.563 426.496Z" fill="#191919"/>
<path d="M483.61 429.12C484.852 427.196 481.93 425.155 481.93 425.155" stroke="white" stroke-linecap="round"/>
<path d="M478.992 425.966C478.992 425.966 481.908 427.954 480.673 429.93" stroke="white" stroke-linecap="round"/>
<path d="M476.084 426.743C476.084 426.743 479 428.731 477.765 430.707" stroke="white" stroke-linecap="round"/>
<path d="M516.195 307.252C516.195 307.252 516.115 316.445 525.591 316.471" stroke="white"/>
<path d="M531.668 226.421C531.665 227.559 532.639 228.483 533.843 228.486C535.047 228.49 536.026 227.57 536.029 226.433L531.668 226.421Z" fill="white" stroke="#191919"/>
</svg>
