<svg width="513" height="323" viewBox="0 0 513 323" fill="none" xmlns="http://www.w3.org/2000/svg">
<path opacity="0.47" d="M255.898 320.913C255.898 320.913 54.9732 349.249 8.37536 188.969C-38.2225 28.6881 143.44 -27.1156 211.683 13.7024C279.925 54.5204 334.043 168.348 393.358 136.603C452.673 104.857 483.251 149.756 476.188 179.687C469.126 209.618 435.227 297.782 255.898 320.913Z" fill="white"/>
<path d="M234.837 168.147C242.382 162.149 243.846 151.851 238.105 145.146C232.365 138.44 221.596 137.867 214.05 143.865C206.505 149.863 205.042 160.161 210.782 166.866C216.522 173.572 227.292 174.145 234.837 168.147Z" fill="black"/>
<path d="M220.766 140.452C218.309 141.145 216.023 142.311 214.047 143.878C206.503 149.878 205.023 160.174 210.78 166.882C214.811 171.595 221.32 173.258 227.456 171.774C232.912 167.716 238.116 162.035 241.063 158.823C241.532 157.078 241.697 155.27 241.551 153.473C238.934 153.768 234.362 155.131 227.414 157.919C212.831 163.768 219.292 144.464 220.766 140.452Z" fill="white"/>
<path fill-rule="evenodd" clip-rule="evenodd" d="M234.837 168.147C242.382 162.149 243.846 151.851 238.105 145.146C232.365 138.44 221.596 137.867 214.05 143.865C206.505 149.863 205.042 160.161 210.782 166.866C216.522 173.572 227.292 174.145 234.837 168.147Z" stroke="#232323" stroke-width="1.21"/>
<path d="M250.335 164.319C244.427 157.415 239.157 173.206 239.157 173.206C239.157 173.206 222.067 175.189 227.974 182.093C250.509 208.041 252.368 236.106 252.368 236.106L276.545 216.888L300.716 197.676C300.716 197.676 272.484 190.58 250.335 164.319Z" fill="white"/>
<path d="M288.056 213.392C280.837 215.131 279.73 195.479 267.681 196.934C236.495 200.69 249.814 166 249.814 166C246.951 166.786 244.139 167.735 241.392 168.841C240.63 170.343 239.973 171.892 239.425 173.478C239.425 173.478 222.334 175.461 228.242 182.365C250.777 208.314 252.635 236.378 252.635 236.378L276.813 217.16L300.984 197.948C300.984 197.948 290.029 214.053 288.056 213.392Z" fill="black"/>
<path fill-rule="evenodd" clip-rule="evenodd" d="M250.335 164.319C244.427 157.415 239.157 173.206 239.157 173.206C239.157 173.206 222.067 175.189 227.974 182.093C250.509 208.041 252.368 236.106 252.368 236.106L276.545 216.888L300.716 197.676C300.716 197.676 272.484 190.58 250.335 164.319V164.319Z" stroke="#232323" stroke-width="1.21"/>
<path d="M221.746 179.464C219.322 176.632 219.723 172.456 222.641 170.137L239.175 156.992C242.093 154.673 246.423 155.088 248.847 157.92C251.271 160.751 250.871 164.927 247.953 167.247L231.418 180.391C228.501 182.71 224.17 182.295 221.746 179.464Z" fill="black"/>
<path d="M250.676 161.206C246.604 163.31 240.84 167.432 234.662 171.548C227.816 176.111 227.04 171.148 227.588 166.221L222.011 170.655C219.449 172.691 219.083 176.342 221.193 178.812L222.294 180.099C223.309 181.292 224.775 182.045 226.368 182.193C227.961 182.341 229.55 181.871 230.782 180.887L248.589 166.737C250.276 165.396 251.075 163.278 250.676 161.206V161.206Z" fill="white"/>
<path fill-rule="evenodd" clip-rule="evenodd" d="M221.746 179.464C219.322 176.632 219.723 172.456 222.641 170.137L239.175 156.992C242.093 154.673 246.423 155.088 248.847 157.92V157.92C251.271 160.751 250.871 164.927 247.953 167.247L231.418 180.391C228.501 182.71 224.17 182.295 221.746 179.464V179.464Z" stroke="black" stroke-width="1.21"/>
<path d="M268.836 254.39C266.931 252.164 267.246 248.883 269.539 247.06L308.629 215.985C310.922 214.162 314.325 214.488 316.23 216.714C318.135 218.939 317.82 222.221 315.527 224.043L276.437 255.118C274.144 256.941 270.741 256.615 268.836 254.39Z" fill="white"/>
<path d="M317.097 217.949C308.675 222.853 286.934 241.549 281.718 246.013C275.143 251.648 280.659 238.245 280.659 238.245L269.229 247.306C267.092 249.01 266.79 252.061 268.556 254.123L269.055 254.703C269.903 255.694 271.124 256.32 272.451 256.443C273.778 256.566 275.101 256.176 276.129 255.358L315.773 223.844C317.588 222.418 318.138 219.971 317.097 217.949Z" fill="black"/>
<path fill-rule="evenodd" clip-rule="evenodd" d="M268.836 254.39C266.931 252.164 267.246 248.883 269.539 247.06L308.629 215.985C310.922 214.162 314.325 214.488 316.23 216.714V216.714C318.135 218.939 317.82 222.221 315.527 224.043L276.437 255.118C274.144 256.941 270.741 256.615 268.836 254.39V254.39Z" stroke="#232323" stroke-width="1.21"/>
<path d="M253.79 247.276C249.635 242.423 250.322 235.266 255.322 231.29L295.266 199.537C300.267 195.561 307.689 196.273 311.843 201.126C315.997 205.979 315.311 213.136 310.31 217.112L270.367 248.865C265.366 252.84 257.944 252.129 253.79 247.276Z" fill="black"/>
<path d="M313.217 202.922C302.599 208.835 285.117 223.247 274.169 232.163C261.379 242.598 264.706 229.381 267.305 221.792L254.75 231.769C250.069 235.495 249.405 242.17 253.264 246.685L254.317 247.914C258.183 252.425 265.11 253.066 269.795 249.346L310.883 216.685C315.127 213.308 316.125 207.426 313.217 202.922V202.922Z" fill="white"/>
<path fill-rule="evenodd" clip-rule="evenodd" d="M253.79 247.276C249.635 242.423 250.322 235.266 255.322 231.29L295.266 199.537C300.267 195.561 307.689 196.273 311.843 201.126V201.126C315.997 205.979 315.311 213.136 310.31 217.112L270.367 248.865C265.366 252.84 257.944 252.129 253.79 247.276V247.276Z" stroke="#232323" stroke-width="1.21"/>
<path d="M150.539 145.443C150.539 145.443 145.161 174.133 168.706 168.052C165.458 153.559 157.986 141.64 165.945 127.089C156.199 122.249 150.677 133.808 150.539 145.443Z" fill="white" stroke="#232323" stroke-width="1.21"/>
<path d="M186.771 166.638C186.771 166.638 147.242 180.858 159.099 134.858C148.271 150.922 135.938 156.556 135.938 156.556C135.938 156.556 145.461 196.609 127.925 202.87C110.39 209.131 76.1902 186.806 89.6113 156.765C103.032 126.724 169.488 109.617 178.151 115.663C186.813 121.71 164.633 163.38 186.771 166.638Z" fill="#F2F2F2"/>
<path fill-rule="evenodd" clip-rule="evenodd" d="M186.771 166.638C186.771 166.638 147.242 180.858 159.099 134.858C148.271 150.922 135.938 156.556 135.938 156.556C135.938 156.556 145.461 196.609 127.925 202.87C110.39 209.131 76.1902 186.806 89.6113 156.765C103.032 126.724 169.488 109.617 178.151 115.663C186.813 121.71 164.633 163.38 186.771 166.638Z" stroke="#232323" stroke-width="1.21"/>
<path d="M188.138 166.18C188.138 166.18 183.427 144.209 199.231 133.982C202.973 131.559 206.552 129.136 209.319 126.522C198.241 121.889 185.682 121.809 174.542 126.301C174.353 127.012 174.083 127.7 173.736 128.353C169.032 137.113 160.321 173.595 188.138 166.18Z" fill="black"/>
<path d="M144.836 103.159C168.706 105.976 178.446 119.588 173.711 128.353C168.977 137.119 160.296 173.571 188.113 166.18C188.113 166.18 183.403 144.209 199.206 133.982" stroke="#232323" stroke-width="1.21"/>
<path d="M254.803 131.53C244.185 133.669 230.692 123.582 213.818 112.104C211.544 105.947 204.193 98.3935 188.78 88.5557C150.689 64.2539 49.1493 31.3955 21.0859 233.653C41.2928 291.55 103.056 294.048 93.3108 274.234C83.5653 254.419 143.536 283.828 144.835 277.99C113.445 217.694 220.17 185.769 221.037 175.757C206.533 137.791 113.229 209.96 107.598 178.076C101.967 146.191 158.473 114.66 194.826 135.936C231.179 157.212 261.077 138.232 254.803 131.53Z" fill="black"/>
<path opacity="0.29" d="M221.037 175.757C219.028 170.505 215.508 167.363 210.924 165.757C207.856 170.238 215.544 180.876 191.897 191.728C121.555 222.453 125.838 261.839 129.935 275.579C138.074 278.135 144.414 279.84 144.83 277.985C113.446 217.694 220.171 185.769 221.037 175.757Z" fill="white"/>
<path opacity="0.72" d="M213.595 111.565C211.087 105.507 203.729 98.1211 188.78 88.579C150.689 64.254 49.1493 31.3955 21.0859 233.653C26.0008 247.752 33.3881 258.581 41.6056 266.564C25.8444 222.39 54.8402 93.0022 113.379 79.3151C174.409 65.083 211.008 108.365 213.595 111.565Z" fill="white"/>
<path d="M215.852 180.551C214.751 177.427 210.384 168.342 198.407 172.696C186.339 177.096 180.011 193.792 187.091 196.83" fill="white"/>
<path d="M215.852 180.551C214.751 177.427 210.384 168.342 198.407 172.696C186.339 177.096 180.011 193.792 187.091 196.83" stroke="#232323" stroke-width="1.21" stroke-linecap="round"/>
<path opacity="0.72" d="M86.5854 108.527C98.7311 94.0342 111.851 86.9269 126.217 84.5964C189.214 74.3702 229.904 136.539 254.803 131.554C254.069 134.528 244.703 139.988 226.728 125.988C208.753 111.988 133.658 68.144 106.413 107.936C88.8954 136.441 74.4336 123.049 86.5854 108.527Z" fill="white"/>
<path d="M86.5859 108.527C98.5392 95.9647 111.852 86.9269 126.218 84.5964C189.214 74.3702 229.905 136.539 254.804 131.554C261.078 138.232 231.234 157.195 194.845 135.913C158.456 114.632 101.974 146.133 107.617 178.053C113.26 209.972 206.552 137.791 221.055 175.734C220.171 185.769 94.6771 222.801 156.038 293.892" stroke="#232323" stroke-width="1.21" stroke-linecap="round"/>
<path d="M77.1289 120.968C77.8708 119.712 78.6208 118.471 79.3788 117.246" stroke="#232323" stroke-width="1.21" stroke-linecap="round"/>
<path d="M106.841 280.593C106.841 280.593 135.422 279.654 143.862 292.187C152.302 304.721 89.9613 284.321 106.841 280.593Z" fill="white"/>
<path d="M213.818 112.11C211.55 105.947 204.193 98.3994 188.781 88.5558C150.689 64.254 43.8498 28.0854 18.5176 254.616" stroke="#232323" stroke-width="1.21"/>
<path d="M497.052 244.546C490.284 241.972 477.344 235.155 497.96 226.082C498.263 225.941 498.418 225.611 498.326 225.299C498.234 224.987 497.922 224.784 497.587 224.818C478.938 227.056 470.637 227.572 468.399 227.682C468.036 227.7 467.752 227.988 467.749 228.337L467.695 240.929C467.694 240.992 467.684 241.054 467.665 241.114L463.947 253.19C463.843 253.523 464.028 253.878 464.368 253.995C466.48 254.726 474.306 257.538 491.439 264.859C491.749 264.99 492.11 264.883 492.292 264.609C492.473 264.334 492.42 263.973 492.167 263.758C475.148 249.335 489.586 246.407 496.829 245.821C497.153 245.809 497.423 245.579 497.477 245.271C497.531 244.963 497.353 244.66 497.052 244.546Z" fill="black"/>
<path d="M474.173 242.43C475.389 237.313 474.43 231.939 471.508 227.508L470.401 227.584L467.724 233.613V240.952C467.723 241.015 467.713 241.077 467.694 241.137L463.976 253.213C463.872 253.547 464.057 253.901 464.398 254.019C466.509 254.749 474.335 257.561 491.468 264.883C491.778 265.013 492.14 264.907 492.321 264.632C492.503 264.358 492.45 263.996 492.196 263.781C475.178 249.358 489.615 246.43 496.858 245.845C497.061 245.829 497.246 245.728 497.362 245.567C497.479 245.407 497.515 245.204 497.46 245.016C483.894 241.874 472.2 250.952 474.173 242.43Z" fill="white"/>
<path fill-rule="evenodd" clip-rule="evenodd" d="M497.052 244.546C490.284 241.972 477.344 235.155 497.96 226.082C498.263 225.941 498.418 225.611 498.326 225.299C498.234 224.987 497.922 224.784 497.587 224.818C478.938 227.056 470.637 227.572 468.399 227.682C468.036 227.7 467.752 227.988 467.749 228.337L467.695 240.929C467.694 240.992 467.684 241.054 467.665 241.114L463.947 253.19C463.843 253.523 464.028 253.878 464.368 253.995C466.48 254.726 474.306 257.538 491.439 264.859C491.749 264.99 492.11 264.883 492.292 264.609C492.473 264.334 492.42 263.973 492.167 263.758C475.148 249.335 489.586 246.407 496.829 245.821C497.153 245.809 497.423 245.579 497.477 245.271C497.531 244.963 497.353 244.66 497.052 244.546V244.546Z" stroke="#232323" stroke-width="1.21"/>
<path d="M445.514 252.042C456.734 253.636 447.638 238.175 447.638 238.175C447.638 238.175 460.975 225.902 449.755 224.308C407.315 218.511 381.248 198.105 381.248 198.105L376.658 228.088L372.068 258.071C372.068 258.071 403.14 245.775 445.514 252.042Z" fill="black"/>
<path d="M449.605 236.163C449.37 233.369 448.949 230.314 448.318 226.969C448.318 226.969 445.184 248.146 427.401 239.213C409.619 230.279 387.204 254.094 386.717 226.575C386.5 214.152 386.62 206.14 386.019 201.404C382.891 199.386 381.248 198.105 381.248 198.105L376.658 228.088L372.068 258.071C372.068 258.071 403.14 245.775 445.514 252.042C446.385 252.187 447.275 252.197 448.149 252.071C449.187 249.032 449.742 245.86 449.798 242.662C449.182 241.122 448.46 239.623 447.638 238.175C447.638 238.175 448.498 237.364 449.605 236.163Z" fill="white"/>
<path fill-rule="evenodd" clip-rule="evenodd" d="M445.514 252.042C456.734 253.636 447.638 238.175 447.638 238.175C447.638 238.175 460.975 225.902 449.755 224.308C407.315 218.511 381.248 198.105 381.248 198.105L376.658 228.088L372.068 258.071C372.068 258.071 403.14 245.775 445.514 252.042V252.042Z" stroke="#232323" stroke-width="1.21"/>
<path d="M457.53 222.411C462.13 223.065 465.29 227.318 464.587 231.911L461.987 248.898C461.284 253.491 456.985 256.684 452.385 256.03C447.785 255.377 444.626 251.123 445.329 246.531L447.929 229.543C448.632 224.95 452.931 221.757 457.53 222.411Z" fill="#0D0805"/>
<path d="M456.149 248.129C447.884 247.914 448.01 231.265 448.082 228.488L444.93 249.091C444.692 250.616 445.095 252.169 446.049 253.407C447.003 254.645 448.43 255.466 450.013 255.688L454.742 256.361H454.832C457.34 253.561 458.369 250.268 456.149 248.129Z" fill="white"/>
<path fill-rule="evenodd" clip-rule="evenodd" d="M457.53 222.411C462.13 223.065 465.29 227.318 464.587 231.911L461.987 248.898C461.284 253.491 456.985 256.684 452.385 256.03V256.03C447.785 255.377 444.626 251.123 445.329 246.531L447.929 229.543C448.632 224.95 452.931 221.757 457.53 222.411V222.411Z" stroke="#232323" stroke-width="1.21"/>
<path d="M465.265 217.184C469.865 217.838 473.024 222.091 472.321 226.683L467.931 255.365C467.228 259.958 462.93 263.151 458.33 262.497C453.73 261.843 450.571 257.59 451.273 252.998L455.663 224.316C456.366 219.723 460.665 216.53 465.265 217.184Z" fill="#010100"/>
<path d="M456.036 262.518L460.764 263.19C462.346 263.419 463.958 263.031 465.243 262.112C466.528 261.192 467.38 259.817 467.61 258.291L470.834 237.207C470.834 237.207 463.116 249.961 458.099 246.013C453.082 242.065 460.734 224.72 456.126 222.105L450.952 255.915C450.713 257.441 451.115 258.995 452.069 260.235C453.023 261.474 454.451 262.296 456.036 262.518Z" fill="white"/>
<path fill-rule="evenodd" clip-rule="evenodd" d="M465.345 217.547C469.945 218.2 473.104 222.454 472.401 227.046L468.011 255.728C467.308 260.321 463.01 263.514 458.41 262.86V262.86C453.81 262.206 450.651 257.953 451.354 253.36L455.743 224.679C456.446 220.086 460.745 216.893 465.345 217.547V217.547Z" stroke="#232323" stroke-width="1.21"/>
<path d="M354.112 194.85C357.335 195.308 359.548 198.288 359.056 201.505L351.842 248.638C351.349 251.856 348.338 254.093 345.115 253.635C341.892 253.177 339.679 250.197 340.171 246.98L347.385 199.847C347.877 196.629 350.889 194.392 354.112 194.85Z" fill="white"/>
<path d="M346.032 239.213C342.128 237.665 353.449 206.812 351.813 194.719C349.609 195.023 347.873 196.684 347.542 198.806L340.01 248.013C339.604 250.651 341.486 253.109 344.221 253.514L345.948 253.758C348.684 254.149 351.233 252.335 351.651 249.7L354.893 228.511C354.893 228.511 350.441 240.963 346.032 239.213Z" fill="black"/>
<path fill-rule="evenodd" clip-rule="evenodd" d="M354.112 194.85C357.335 195.308 359.548 198.288 359.056 201.505L351.842 248.638C351.349 251.856 348.338 254.093 345.115 253.635V253.635C341.892 253.177 339.679 250.197 340.171 246.98L347.385 199.847C347.877 196.629 350.889 194.392 354.112 194.85V194.85Z" stroke="#232323" stroke-width="1.21"/>
<path d="M371.564 190.579C378.59 191.578 383.415 198.074 382.341 205.088L375.209 251.691C374.135 258.705 367.57 263.582 360.544 262.584C353.518 261.585 348.693 255.089 349.767 248.075L356.899 201.472C357.973 194.458 364.539 189.581 371.564 190.579Z" fill="black"/>
<path d="M380.364 217.949C380.364 217.949 373.073 234.981 361.866 231.932C352.475 229.369 362.016 202.986 361.144 192.609C359.027 194.274 357.632 196.642 357.234 199.247L349.413 250.291C348.531 256.079 352.679 261.462 358.683 262.321L362.371 262.842C365.256 263.252 368.193 262.54 370.534 260.864C372.875 259.188 374.429 256.684 374.854 253.903L380.364 217.949Z" fill="white"/>
<path fill-rule="evenodd" clip-rule="evenodd" d="M371.562 190.579C378.588 191.578 383.413 198.074 382.339 205.088L375.207 251.691C374.133 258.705 367.568 263.582 360.542 262.584V262.584C353.516 261.585 348.691 255.089 349.765 248.075L356.897 201.472C357.971 194.458 364.537 189.581 371.562 190.579V190.579Z" stroke="#232323" stroke-width="1.21"/>
<path d="M472.849 263.068H180.557" stroke="#232323" stroke-width="1.21"/>
<path d="M250.593 131.942L250.37 131.75C244.438 131.252 237.737 127.855 230.133 123.055C226.728 123.53 226.036 126.208 230.855 131.107C241.822 142.29 250.593 131.942 250.593 131.942Z" fill="white" stroke="#232323" stroke-width="1.21" stroke-linecap="round"/>
<path d="M191.898 141.449C191.898 141.345 191.898 141.281 191.898 141.281C191.898 141.281 180.727 143.02 179.548 152.621C178.585 160.482 184.035 164.337 187.813 164.029C187.272 159.716 186.772 149.699 191.898 141.449Z" fill="white" stroke="#232323" stroke-width="1.21" stroke-linecap="round"/>
<path d="M162.877 178.232C165.807 177.257 168.804 176.483 171.846 175.914" stroke="#232323" stroke-width="1.21" stroke-linecap="round"/>
<path d="M147.922 183.792L151.17 182.522" stroke="#232323" stroke-width="1.21" stroke-linecap="round"/>
<path d="M102.6 162.528C101.084 166.609 99.9619 170.816 99.2488 175.096C97.7148 184.876 98.8157 196.418 113.56 194.012C124.545 192.227 134.134 189.027 142.773 185.769" stroke="#232323" stroke-width="1.21" stroke-linecap="round"/>
<path opacity="0.29" d="M170.143 122.985C170.143 122.985 193.911 125.965 204.98 135.159C216.049 144.353 219.839 133.999 211.555 129.072C203.272 124.144 158.202 115.698 170.143 122.985Z" fill="white"/>
<path opacity="0.29" d="M162.877 124.405C162.877 124.405 153.09 127.223 154.064 124.405C155.039 121.588 165.326 119.402 162.877 124.405Z" fill="white"/>
<path opacity="0.29" d="M120.755 256.494C120.755 256.494 124.623 228.807 138.363 222.291C152.103 215.775 130.801 214.117 120.755 228.436C110.708 242.755 118.384 267.062 120.755 256.494Z" fill="white"/>
<path opacity="0.29" d="M252.21 173.154C252.21 173.154 250.749 178.87 260.067 183.055C269.385 187.241 263.905 191.821 268.284 190.76C272.664 189.699 269.018 185.948 263.538 182.018C258.058 178.087 254.4 169.635 252.21 173.154Z" fill="white"/>
<path opacity="0.29" d="M274.301 191.473C274.301 191.473 280.365 192.545 280.918 194.336C281.472 196.128 270.83 194.644 274.301 191.473Z" fill="white"/>
<path opacity="0.29" d="M300.714 200.354C300.714 200.354 313.347 200.302 311.074 209.334C308.8 218.366 303.217 209.861 304.131 206.87C305.046 203.879 292.437 202.198 300.714 200.354Z" fill="white"/>
<path opacity="0.29" d="M242.375 157.513C242.375 157.513 249.684 157.623 248.391 161.206C247.097 164.788 243.644 158.626 242.375 160.382C241.106 162.139 238.633 159.339 242.375 157.513Z" fill="white"/>
<path d="M210.996 159.206C211.244 160.379 211.659 161.515 212.229 162.58" stroke="#232323" stroke-width="1.21" stroke-linecap="round"/>
<path d="M215.851 147.438C215.851 147.438 211.917 150.29 210.973 155.009" stroke="#232323" stroke-width="1.21" stroke-linecap="round"/>
<path d="M249.654 210.505C250.124 211.664 250.567 212.862 250.984 214.099" stroke="#232323" stroke-width="1.21" stroke-linecap="round"/>
<path d="M238.17 189.2C241.962 194.824 245.285 200.728 248.108 206.858" stroke="#232323" stroke-width="1.21" stroke-linecap="round"/>
<path d="M255.639 237.207C255.639 237.207 253.125 243.845 261.18 247.717" stroke="#232323" stroke-width="1.21" stroke-linecap="round"/>
<path opacity="0.29" d="M436.66 228.488C436.66 228.488 403.405 228.204 398.652 217.143C402.797 213.149 401.775 215.984 410.93 220.192C420.086 224.401 445.671 225.514 436.66 228.488Z" fill="white"/>
<path opacity="0.29" d="M394.261 212.302C394.261 212.302 390.814 216.94 388.66 214.099C386.506 211.259 390.615 205.821 394.261 212.302Z" fill="white"/>
<path opacity="0.29" d="M461.871 220.424C461.871 220.424 470.852 221.288 469.3 224.812C467.748 228.337 455.368 218.546 461.871 220.424Z" fill="white"/>
<path opacity="0.29" d="M366.046 194.673C366.046 194.673 378.92 194.673 379.167 199.345C379.413 204.018 376.76 209.624 375.022 205.143C373.283 200.661 358.767 200.841 366.046 194.673Z" fill="white"/>
<path opacity="0.29" d="M374.047 209.259C374.047 209.259 371.37 214.94 374.047 215.218C376.724 215.497 376.971 210.766 374.047 209.259Z" fill="white"/>
<path opacity="0.29" d="M477.169 229.583C477.169 229.583 488.063 227.468 486.842 229.583C485.621 231.699 476.026 235.682 477.169 229.583Z" fill="white"/>
<path d="M426.943 245.584C428.805 245.813 430.648 246.166 432.46 246.639" stroke="#232323" stroke-width="1.21" stroke-linecap="round"/>
<path d="M415.766 244.998H418.605" stroke="#232323" stroke-width="1.21" stroke-linecap="round"/>
<path d="M382.795 248.772C382.795 248.772 397.973 245.549 413.162 245.056" stroke="#232323" stroke-width="1.21" stroke-linecap="round"/>
<path d="M453.816 248.303C453.167 252.39 452.523 257.039 452.788 258.071C453.118 259.387 455.41 260.819 458.43 261.132" stroke="#232323" stroke-width="1.21" stroke-linecap="round"/>
<path d="M454.952 241.671C454.952 241.671 454.676 243.207 454.309 245.346" stroke="#232323" stroke-width="1.21" stroke-linecap="round"/>
<path d="M482.367 258.488C483.125 258.894 483.751 259.248 484.172 259.514" stroke="#232323" stroke-width="1.21" stroke-linecap="round"/>
<path d="M470.834 252.825C470.834 252.825 474.672 254.622 478.312 256.419" stroke="#232323" stroke-width="1.21" stroke-linecap="round"/>
<path d="M369.721 253.81C369.721 253.81 370.551 262.013 359.266 259.028" stroke="#232323" stroke-width="1.21" stroke-linecap="round"/>
<path d="M47.9824 104.962C63.5511 83.1641 94.1652 55.2623 147.922 58.0855" stroke="#232323" stroke-width="1.21" stroke-linecap="round"/>
<path d="M40.5352 116.718C41.5819 114.834 42.773 112.811 44.1446 110.683" stroke="#232323" stroke-width="1.21" stroke-linecap="round"/>
<path d="M34.4473 129.681C34.4473 129.681 35.2534 127.362 37.0461 123.536" stroke="#232323" stroke-width="1.21" stroke-linecap="round"/>
<path d="M241.918 122.579C246.977 125.496 252.943 126.595 258.762 125.681C273.831 123.489 264.778 142.521 250.677 145.095" stroke="#232323" stroke-width="1.21" stroke-linecap="round"/>
<path d="M235.445 117.246C236.172 118.124 236.977 118.939 237.852 119.68" stroke="#232323" stroke-width="1.21" stroke-linecap="round"/>
<path d="M239 221.352C241.033 227.027 242.483 234.824 241.611 244.992" stroke="#232323" stroke-width="1.21" stroke-linecap="round"/>
<path d="M231.775 209.259C233.409 210.871 234.799 212.698 235.902 214.685" stroke="#232323" stroke-width="1.21" stroke-linecap="round"/>
<path d="M501.062 218.632L506.2 207.948" stroke="#232323" stroke-width="1.21" stroke-linecap="round"/>
<path d="M504.527 222.076L512.167 218.047" stroke="#232323" stroke-width="1.21" stroke-linecap="round"/>
<path d="M496.057 217.409L496.165 209.015" stroke="#232323" stroke-width="1.21" stroke-linecap="round"/>
<path d="M338.025 232.824L335.559 252.824" stroke="#232323" stroke-width="1.21" stroke-linecap="round"/>
<path d="M339.956 217.143L339.078 224.267" stroke="#232323" stroke-width="1.21" stroke-linecap="round"/>
<path d="M418.605 211.328C424.003 214.059 429.743 216.109 435.684 217.427" stroke="#232323" stroke-width="1.21" stroke-linecap="round"/>
<path d="M406.814 202.922C408.616 204.828 410.65 206.515 412.872 207.949" stroke="#232323" stroke-width="1.21" stroke-linecap="round"/>
<path d="M305.408 192.609C305.408 192.609 314.727 194.244 315.827 200.725" stroke="#232323" stroke-width="1.21" stroke-linecap="round"/>
</svg>
