<svg width="154" height="173" viewBox="0 0 154 173" fill="none" xmlns="http://www.w3.org/2000/svg">
<rect x="16.0293" y="26.4365" width="121.845" height="120.856" rx="40" fill="black"/>
<path fill-rule="evenodd" clip-rule="evenodd" d="M128.873 44.9855C126.39 22.265 105.234 5.59719 81.5518 7.98035C57.8692 10.3635 40.7785 30.8801 43.262 53.6005C44.8088 67.7505 54.4581 79.8124 63.4218 87.752C68.0479 91.8496 72.9281 95.2444 77.3399 97.6271C79.5391 98.8148 81.7866 99.8404 83.9559 100.56C85.8867 101.2 88.7453 101.942 91.7892 101.635C94.8331 101.329 97.4692 100.035 99.2194 99.0241C101.186 97.8883 103.163 96.4376 105.057 94.8379C108.858 91.6288 112.898 87.3364 116.537 82.4071C123.589 72.8559 130.42 59.1355 128.873 44.9855ZM84.2379 32.5549C93.6253 31.6102 102.244 38.2631 103.261 47.5629C103.891 53.3258 100.89 60.5846 95.9041 67.4663C93.5436 70.7242 91.0237 73.4967 88.9379 75.4649C88.9355 75.4672 88.9331 75.4695 88.9306 75.4718C88.927 75.4696 88.9234 75.4674 88.9199 75.4652C86.4533 73.9543 83.3883 71.7433 80.3746 69.0261C74.0085 63.2862 69.5041 56.7837 68.8745 51.0231C67.8579 41.7233 74.8505 33.4995 84.2379 32.5549Z" fill="white"/>
<path fill-rule="evenodd" clip-rule="evenodd" d="M153.91 74.3604C153.91 33.3889 119.431 0 76.9547 0C34.4788 0 -0.000228882 33.3889 -0.000228882 74.3604C-0.000228882 99.6445 14.9807 124.106 31.2848 141.912C39.5076 150.892 48.2735 158.411 56.0834 163.728C59.9848 166.385 63.732 168.55 67.1241 170.072C70.3888 171.536 73.8254 172.636 76.9547 172.636C80.0841 172.636 83.5206 171.536 86.7853 170.072C90.1774 168.55 93.9246 166.385 97.8261 163.728C98.3266 163.388 98.831 163.038 99.339 162.679L75.1417 148.482C74.924 148.359 74.6972 148.229 74.4615 148.09C72.4254 146.891 69.9014 145.183 67.0548 143.008C61.3656 138.659 54.5964 132.602 48.113 125.393C34.9795 110.791 23.8171 92.3618 23.8171 74.3604C23.8171 45.9233 47.7065 22.8523 76.9546 22.8523C106.203 22.8523 130.092 45.9233 130.092 74.3604C130.092 92.3662 118.929 110.798 105.796 125.4C100.141 131.687 79.9234 144.088 74.7402 148.253L99.339 162.679C103.406 159.1 118.642 146.261 122.625 141.912C138.929 124.106 153.91 99.6445 153.91 74.3604Z" fill="white"/>
</svg>
